<svg xmlns="http://www.w3.org/2000/svg" xmlns:xlink="http://www.w3.org/1999/xlink" viewBox="0 0 350.32 410.39"><defs><style>.cls-1{isolation:isolate;}.cls-2,.cls-23{fill:#8686f2;}.cls-2{mix-blend-mode:lighten;}.cls-3{fill:url(#Áåçûìÿííûé_ãðàäèåíò_18);}.cls-4{fill:#bcbeff;}.cls-5{fill:#fff;}.cls-6{fill:#0f054c;}.cls-10,.cls-11,.cls-12,.cls-13,.cls-16,.cls-17,.cls-18,.cls-19,.cls-20,.cls-21,.cls-7,.cls-8,.cls-9{opacity:0.5;}.cls-7{fill:url(#Áåçûìÿííûé_ãðàäèåíò_254);}.cls-8{fill:url(#Áåçûìÿííûé_ãðàäèåíò_254-2);}.cls-9{fill:url(#Áåçûìÿííûé_ãðàäèåíò_254-3);}.cls-10{fill:url(#Áåçûìÿííûé_ãðàäèåíò_254-4);}.cls-11,.cls-14,.cls-28,.cls-31,.cls-32{fill:#42e8e0;}.cls-12{fill:url(#Áåçûìÿííûé_ãðàäèåíò_254-5);}.cls-13{fill:url(#Áåçûìÿííûé_ãðàäèåíò_254-6);}.cls-14{opacity:0.8;}.cls-15{fill:url(#Áåçûìÿííûé_ãðàäèåíò_18-2);}.cls-16{fill:url(#Áåçûìÿííûé_ãðàäèåíò_254-7);}.cls-17{fill:url(#Áåçûìÿííûé_ãðàäèåíò_254-8);}.cls-18{fill:url(#Áåçûìÿííûé_ãðàäèåíò_254-9);}.cls-19{fill:url(#Áåçûìÿííûé_ãðàäèåíò_254-10);}.cls-20{fill:url(#Áåçûìÿííûé_ãðàäèåíò_254-11);}.cls-21{fill:url(#Áåçûìÿííûé_ãðàäèåíò_254-12);}.cls-22,.cls-27,.cls-30{fill:#453c9e;}.cls-22{opacity:0.7;}.cls-24{fill:url(#Áåçûìÿííûé_ãðàäèåíò_3);}.cls-25{fill:#24126a;}.cls-26,.cls-30{opacity:0.51;}.cls-29{fill:url(#Áåçûìÿííûé_ãðàäèåíò_3-2);}.cls-31{opacity:0.1;}.cls-32{opacity:0.4;}</style><linearGradient id="Áåçûìÿííûé_ãðàäèåíò_18" x1="-28.64" y1="260.54" x2="120.55" y2="260.54" gradientUnits="userSpaceOnUse"><stop offset="0" stop-color="#5761d7"/><stop offset="0.16" stop-color="#5e67da"/><stop offset="0.41" stop-color="#727ae2"/><stop offset="0.69" stop-color="#9297ee"/><stop offset="1" stop-color="#bcbeff"/></linearGradient><linearGradient id="Áåçûìÿííûé_ãðàäèåíò_254" x1="13.58" y1="240.38" x2="103.13" y2="240.38" gradientUnits="userSpaceOnUse"><stop offset="0" stop-color="#42e8e0"/><stop offset="0.15" stop-color="#43e3e0"/><stop offset="0.33" stop-color="#45d5df"/><stop offset="0.52" stop-color="#49bddd"/><stop offset="0.72" stop-color="#4e9cdb"/><stop offset="0.93" stop-color="#5472d8"/><stop offset="1" stop-color="#5761d7"/></linearGradient><linearGradient id="Áåçûìÿííûé_ãðàäèåíò_254-2" x1="58.35" y1="224.2" x2="103.13" y2="224.2" xlink:href="#Áåçûìÿííûé_ãðàäèåíò_254"/><linearGradient id="Áåçûìÿííûé_ãðàäèåíò_254-3" x1="13.58" y1="224.2" x2="58.35" y2="224.2" xlink:href="#Áåçûìÿííûé_ãðàäèåíò_254"/><linearGradient id="Áåçûìÿííûé_ãðàäèåíò_254-4" x1="13.58" y1="233.86" x2="103.13" y2="233.86" xlink:href="#Áåçûìÿííûé_ãðàäèåíò_254"/><linearGradient id="Áåçûìÿííûé_ãðàäèåíò_254-5" x1="58.35" y1="250.05" x2="103.13" y2="250.05" xlink:href="#Áåçûìÿííûé_ãðàäèåíò_254"/><linearGradient id="Áåçûìÿííûé_ãðàäèåíò_254-6" x1="13.58" y1="250.05" x2="58.35" y2="250.05" xlink:href="#Áåçûìÿííûé_ãðàäèåíò_254"/><linearGradient id="Áåçûìÿííûé_ãðàäèåíò_18-2" x1="204.69" y1="260.54" x2="353.88" y2="260.54" xlink:href="#Áåçûìÿííûé_ãðàäèåíò_18"/><linearGradient id="Áåçûìÿííûé_ãðàäèåíò_254-7" x1="246.91" y1="240.38" x2="336.46" y2="240.38" xlink:href="#Áåçûìÿííûé_ãðàäèåíò_254"/><linearGradient id="Áåçûìÿííûé_ãðàäèåíò_254-8" x1="291.69" y1="224.2" x2="336.46" y2="224.2" xlink:href="#Áåçûìÿííûé_ãðàäèåíò_254"/><linearGradient id="Áåçûìÿííûé_ãðàäèåíò_254-9" x1="246.91" y1="224.2" x2="291.69" y2="224.2" xlink:href="#Áåçûìÿííûé_ãðàäèåíò_254"/><linearGradient id="Áåçûìÿííûé_ãðàäèåíò_254-10" x1="246.91" y1="233.86" x2="336.46" y2="233.86" xlink:href="#Áåçûìÿííûé_ãðàäèåíò_254"/><linearGradient id="Áåçûìÿííûé_ãðàäèåíò_254-11" x1="291.69" y1="250.05" x2="336.46" y2="250.05" xlink:href="#Áåçûìÿííûé_ãðàäèåíò_254"/><linearGradient id="Áåçûìÿííûé_ãðàäèåíò_254-12" x1="246.91" y1="250.05" x2="291.69" y2="250.05" xlink:href="#Áåçûìÿííûé_ãðàäèåíò_254"/><linearGradient id="Áåçûìÿííûé_ãðàäèåíò_3" x1="226.89" y1="328.81" x2="226.89" y2="110.49" gradientUnits="userSpaceOnUse"><stop offset="0" stop-color="#c0bff6"/><stop offset="0.29" stop-color="#c5c4f7"/><stop offset="0.64" stop-color="#d3d2f9"/><stop offset="1" stop-color="#e9e9fd"/></linearGradient><linearGradient id="Áåçûìÿííûé_ãðàäèåíò_3-2" x1="226.89" y1="132.42" x2="226.89" y2="61.72" xlink:href="#Áåçûìÿííûé_ãðàäèåíò_3"/></defs><g class="cls-1"><g id="Ñëîé_1" data-name="Ñëîé 1"><path class="cls-2" d="M178.07,321.14a5,5,0,0,1-2.44-.57l-54.81-31.65a1.94,1.94,0,0,1-1.1-1.65,2.51,2.51,0,0,1,1.46-2L175.26,254a6,6,0,0,1,5.54-.21l54.81,31.65a1.91,1.91,0,0,1,1.1,1.65,2.5,2.5,0,0,1-1.46,2l-54.08,31.23A6.45,6.45,0,0,1,178.07,321.14Zm-2-1.31a5.28,5.28,0,0,0,4.68-.21l54.08-31.22c.65-.38,1-.87,1-1.3a1.15,1.15,0,0,0-.67-.92l-54.82-31.65a5.34,5.34,0,0,0-4.68.21L121.61,286a1.74,1.74,0,0,0-1,1.3,1.13,1.13,0,0,0,.67.91Z" transform="translate(-119.72 -23.65)"/><polygon class="cls-3" points="116.57 240.37 116.57 247.1 58.35 280.71 0.14 247.1 0.14 240.37 116.57 240.37"/><polygon class="cls-4" points="58.35 273.98 0.14 240.37 58.35 206.76 116.57 240.37 58.35 273.98"/><polygon class="cls-5" points="58.35 273.2 0.82 239.98 0.14 240.37 58.35 273.98 116.57 240.37 115.89 239.98 58.35 273.2"/><polygon class="cls-6" points="58.35 266.23 13.58 240.38 58.35 214.53 103.13 240.38 58.35 266.23"/><polygon class="cls-7" points="58.35 266.23 13.58 240.38 58.35 214.53 103.13 240.38 58.35 266.23"/><polygon class="cls-8" points="58.35 208.01 103.13 233.86 103.13 240.38 58.35 214.53 58.35 208.01"/><polygon class="cls-9" points="58.35 214.53 13.58 240.38 13.58 233.86 58.35 208.01 58.35 214.53"/><polygon class="cls-10" points="58.35 259.71 13.58 233.86 58.35 208.01 103.13 233.86 58.35 259.71"/><polygon class="cls-11" points="58.35 244.19 40.46 233.86 58.35 223.53 76.24 233.86 58.35 244.19"/><polygon class="cls-11" points="58.35 224.48 75.42 234.34 76.24 233.86 58.35 223.53 40.46 233.86 41.29 234.34 58.35 224.48"/><polygon class="cls-12" points="58.35 259.71 58.35 266.23 103.13 240.38 103.13 233.86 58.35 259.71"/><polygon class="cls-13" points="13.58 233.86 13.58 240.38 58.35 266.23 58.35 259.71 13.58 233.86"/><polygon class="cls-14" points="58.35 259 14.2 233.51 13.58 233.86 58.35 259.71 103.13 233.86 102.51 233.51 58.35 259"/><path class="cls-2" d="M411.4,321.14a5,5,0,0,1-2.43-.57l-54.82-31.65a1.94,1.94,0,0,1-1.1-1.65,2.53,2.53,0,0,1,1.47-2L408.6,254a6,6,0,0,1,5.53-.21L469,285.45A1.88,1.88,0,0,1,470,287.1a2.5,2.5,0,0,1-1.46,2L414.5,320.36A6.43,6.43,0,0,1,411.4,321.14Zm-2-1.31a5.3,5.3,0,0,0,4.69-.21l54.08-31.22c.65-.38,1-.87,1-1.3a1.16,1.16,0,0,0-.68-.92l-54.81-31.65a5.37,5.37,0,0,0-4.69.21L354.94,286a1.74,1.74,0,0,0-1,1.3,1.14,1.14,0,0,0,.68.91Z" transform="translate(-119.72 -23.65)"/><polygon class="cls-15" points="349.9 240.37 349.9 247.1 291.69 280.71 233.48 247.1 233.48 240.37 349.9 240.37"/><polygon class="cls-4" points="291.69 273.98 233.48 240.37 291.69 206.76 349.9 240.37 291.69 273.98"/><polygon class="cls-5" points="291.69 273.2 234.16 239.98 233.48 240.37 291.69 273.98 349.9 240.37 349.22 239.98 291.69 273.2"/><polygon class="cls-6" points="291.69 266.23 246.91 240.38 291.69 214.53 336.46 240.38 291.69 266.23"/><polygon class="cls-16" points="291.69 266.23 246.91 240.38 291.69 214.53 336.46 240.38 291.69 266.23"/><polygon class="cls-17" points="291.69 208.01 336.46 233.86 336.46 240.38 291.69 214.53 291.69 208.01"/><polygon class="cls-18" points="291.69 214.53 246.91 240.38 246.91 233.86 291.69 208.01 291.69 214.53"/><polygon class="cls-19" points="291.69 259.71 246.91 233.86 291.69 208.01 336.46 233.86 291.69 259.71"/><polygon class="cls-11" points="291.69 244.19 273.8 233.86 291.69 223.53 309.58 233.86 291.69 244.19"/><polygon class="cls-11" points="291.69 224.48 308.76 234.34 309.58 233.86 291.69 223.53 273.8 233.86 274.62 234.34 291.69 224.48"/><polygon class="cls-20" points="291.69 259.71 291.69 266.23 336.46 240.38 336.46 233.86 291.69 259.71"/><polygon class="cls-21" points="246.91 233.86 246.91 240.38 291.69 266.23 291.69 259.71 246.91 233.86"/><polygon class="cls-14" points="291.69 259 247.53 233.51 246.91 233.86 291.69 259.71 336.46 233.86 335.85 233.51 291.69 259"/><polygon class="cls-4" points="175.16 164.09 71.7 104.36 175.16 44.63 278.62 104.36 175.16 164.09"/><polygon class="cls-22" points="175.16 158.71 81.02 104.36 175.16 50.01 269.3 104.36 175.16 158.71"/><path class="cls-23" d="M294.88,434a9.24,9.24,0,0,1-4.61-1.24L163.55,359.64a2.72,2.72,0,0,1,0-4.71l131.33-75.82,135.41,78.18L299.5,432.8A9.25,9.25,0,0,1,294.88,434Zm-4.11-2.1a8.23,8.23,0,0,0,8.23,0l129.31-74.65-133.43-77L164.05,355.79a1.73,1.73,0,0,0,0,3Z" transform="translate(-119.72 -23.65)"/><polygon class="cls-5" points="175.16 393.37 71.7 333.64 175.16 273.91 278.62 333.64 175.16 393.37"/><polygon class="cls-24" points="278.62 104.36 278.62 333.64 175.16 393.37 175.16 164.09 278.62 104.36"/><polygon class="cls-25" points="71.7 104.36 71.7 333.64 175.16 393.37 175.16 164.09 71.7 104.36"/><g class="cls-26"><polygon class="cls-27" points="78.71 119.57 78.71 325.65 168.16 377.29 168.16 171.21 78.71 119.57"/></g><polygon class="cls-27" points="263.1 159.75 263.1 165.81 190.68 207.63 190.68 201.56 263.1 159.75"/><polygon class="cls-27" points="263.1 185.38 263.1 191.44 190.68 233.25 190.68 227.19 263.1 185.38"/><polygon class="cls-27" points="263.1 211 263.1 217.06 190.68 258.87 190.68 252.81 263.1 211"/><polygon class="cls-27" points="263.1 236.63 263.1 242.69 190.68 284.5 190.68 278.44 263.1 236.63"/><polygon class="cls-27" points="263.1 262.25 263.1 268.31 190.68 310.12 190.68 304.06 263.1 262.25"/><polygon class="cls-27" points="263.1 287.88 263.1 293.94 190.68 335.75 190.68 329.69 263.1 287.88"/><polygon class="cls-5" points="175.16 162.15 73.39 103.39 71.7 104.36 175.16 164.09 278.62 104.36 276.94 103.39 175.16 162.15"/><g class="cls-26"><polygon class="cls-27" points="71.7 297.4 175.16 234.94 175.16 164.09 71.7 104.36 71.7 297.4"/></g><polygon class="cls-28" points="89.42 192.55 102.3 199.99 102.3 197.75 89.43 190.32 89.42 192.55"/><polygon class="cls-28" points="104.37 201.18 111.38 205.23 111.39 202.99 104.37 198.94 104.37 201.18"/><polygon class="cls-28" points="122.3 211.52 127.37 214.45 127.38 212.22 122.3 209.29 122.3 211.52"/><polygon class="cls-28" points="118.6 209.38 120.33 210.38 120.33 208.15 118.6 207.15 118.6 209.38"/><polygon class="cls-28" points="113.48 206.43 116.63 208.25 116.63 206.01 113.48 204.19 113.48 206.43"/><polygon class="cls-28" points="101.33 209.64 106.4 212.57 106.4 210.34 101.33 207.41 101.33 209.64"/><polygon class="cls-28" points="89.41 202.76 99.36 208.5 99.36 206.27 89.42 200.53 89.41 202.76"/><polygon class="cls-28" points="107.95 238.97 117.9 244.71 117.9 242.48 107.96 236.73 107.95 238.97"/><polygon class="cls-28" points="102.84 236.01 105.99 237.83 105.99 235.6 102.84 233.78 102.84 236.01"/><polygon class="cls-28" points="107.9 228.75 117.85 234.49 117.85 232.25 107.91 226.51 107.9 228.75"/><polygon class="cls-28" points="102.79 225.79 105.94 227.61 105.94 225.38 102.79 223.56 102.79 225.79"/><polygon class="cls-28" points="108.02 283.08 89.28 272.26 89.28 274.5 108.01 285.31 108.02 283.08"/><polygon class="cls-28" points="114.62 286.89 109.98 284.21 109.98 286.45 114.62 289.13 114.62 286.89"/><polygon class="cls-28" points="144.96 289.06 126.23 278.24 126.22 280.47 144.96 291.29 144.96 289.06"/><polygon class="cls-28" points="151.56 292.87 146.93 290.19 146.93 292.43 151.56 295.1 151.56 292.87"/><polygon class="cls-28" points="94.36 270.09 89.29 267.16 89.28 269.39 94.36 272.32 94.36 270.09"/><polygon class="cls-28" points="123.53 276.7 118.45 273.77 118.45 276.01 123.52 278.94 123.53 276.7"/><polygon class="cls-28" points="106.27 276.97 96.33 271.22 96.33 273.46 106.27 279.2 106.27 276.97"/><polygon class="cls-28" points="111.39 279.92 108.24 278.1 108.24 280.34 111.39 282.15 111.39 279.92"/><polygon class="cls-28" points="123.39 286.84 113.45 281.1 113.44 283.33 123.39 289.07 123.39 286.84"/><polygon class="cls-28" points="128.51 289.79 125.36 287.98 125.36 290.21 128.51 292.03 128.51 289.79"/><polygon class="cls-28" points="123.52 281.81 118.45 278.88 118.44 281.11 123.52 284.04 123.52 281.81"/><polygon class="cls-28" points="135.43 288.69 125.49 282.94 125.49 285.18 135.43 290.92 135.43 288.69"/><polygon class="cls-28" points="140.55 291.64 137.4 289.82 137.4 292.06 140.55 293.88 140.55 291.64"/><polygon class="cls-28" points="99.68 268.05 89.29 262.05 89.29 264.29 99.67 270.28 99.68 268.05"/><polygon class="cls-28" points="109.15 273.52 101.64 269.19 101.64 271.42 109.15 275.76 109.15 273.52"/><polygon class="cls-28" points="116.2 277.59 111.12 274.66 111.12 276.89 116.19 279.82 116.2 277.59"/><polygon class="cls-28" points="150.53 232.92 160.92 238.91 160.92 236.68 150.54 230.68 150.53 232.92"/><polygon class="cls-28" points="141.06 227.44 148.57 231.78 148.57 229.55 141.06 225.21 141.06 227.44"/><polygon class="cls-28" points="134.01 223.38 139.09 226.31 139.09 224.07 134.02 221.14 134.01 223.38"/><polygon class="cls-28" points="146.23 225.3 156.61 231.3 156.61 229.07 146.23 223.07 146.23 225.3"/><polygon class="cls-28" points="136.75 219.83 144.26 224.17 144.26 221.93 136.75 217.6 136.75 219.83"/><polygon class="cls-28" points="129.71 215.76 134.78 218.69 134.78 216.46 129.71 213.53 129.71 215.76"/><polygon class="cls-28" points="109.45 234.75 112.95 236.77 112.96 234.54 109.45 232.51 109.45 234.75"/><polygon class="cls-28" points="102.84 230.94 107.48 233.61 107.48 231.38 102.84 228.7 102.84 230.94"/><polygon class="cls-28" points="99.75 262.98 89.36 256.98 89.36 259.21 99.75 265.21 99.75 262.98"/><polygon class="cls-28" points="109.22 268.45 101.71 264.11 101.71 266.35 109.22 270.68 109.22 268.45"/><polygon class="cls-28" points="116.27 272.52 111.19 269.58 111.19 271.82 116.27 274.75 116.27 272.52"/><polygon class="cls-28" points="92.87 253.9 89.37 251.88 89.36 254.11 92.87 256.14 92.87 253.9"/><polygon class="cls-28" points="99.48 257.71 94.84 255.04 94.84 257.27 99.47 259.95 99.48 257.71"/><polygon class="cls-28" points="108.91 263.16 101.44 258.85 101.44 261.08 108.91 265.4 108.91 263.16"/><polygon class="cls-28" points="111.64 220.68 115.15 222.7 115.15 220.47 111.64 218.44 111.64 220.68"/><polygon class="cls-28" points="105.04 216.86 109.67 219.54 109.68 217.31 105.04 214.63 105.04 216.86"/><polygon class="cls-28" points="95.6 211.41 103.07 215.73 103.07 213.49 95.61 209.18 95.6 211.41"/><polygon class="cls-28" points="117.78 228.96 125.25 233.27 125.25 231.04 117.78 226.73 117.78 228.96"/><polygon class="cls-28" points="105.63 222.31 115.69 228.12 115.69 225.89 105.63 220.07 105.63 222.31"/><polygon class="cls-28" points="100.51 219.35 103.66 221.17 103.66 218.94 100.51 217.12 100.51 219.35"/><polygon class="cls-28" points="95.6 216.52 98.75 218.34 98.75 216.1 95.6 214.28 95.6 216.52"/><polygon class="cls-28" points="100.63 245.35 110.57 251.1 110.58 248.86 100.63 243.12 100.63 245.35"/><polygon class="cls-28" points="95.51 242.4 98.66 244.22 98.66 241.99 95.51 240.17 95.51 242.4"/><polygon class="cls-28" points="102.17 251.36 105.68 253.38 105.68 251.15 102.17 249.12 102.17 251.36"/><polygon class="cls-28" points="112.83 247.26 116.34 249.29 116.34 247.06 112.83 245.03 112.83 247.26"/><polygon class="cls-28" points="117.83 250.15 126.25 255 126.25 252.77 117.83 247.91 117.83 250.15"/><polygon class="cls-28" points="127.74 255.86 132.75 258.75 132.75 256.52 127.74 253.63 127.74 255.86"/><polygon class="cls-28" points="95.57 247.54 100.2 250.22 100.2 247.99 95.57 245.31 95.57 247.54"/><polygon class="cls-28" points="95.97 252.79 99.48 254.81 99.48 252.58 95.97 250.55 95.97 252.79"/><polygon class="cls-28" points="89.37 248.97 94 251.65 94.01 249.42 89.37 246.74 89.37 248.97"/><polygon class="cls-28" points="107.74 244.33 110.89 246.15 110.9 243.91 107.75 242.09 107.74 244.33"/><polygon class="cls-28" points="102.83 241.49 105.98 243.31 105.98 241.08 102.83 239.26 102.83 241.49"/><polygon class="cls-28" points="120.96 215.84 131.71 222.04 131.71 219.81 120.96 213.61 120.96 215.84"/><polygon class="cls-28" points="108.93 208.89 119 214.71 119 212.47 108.93 206.66 108.93 208.89"/><polygon class="cls-28" points="103.81 205.94 106.96 207.76 106.96 205.52 103.81 203.7 103.81 205.94"/><polygon class="cls-28" points="98.9 203.1 102.05 204.92 102.05 202.69 98.9 200.87 98.9 203.1"/><polygon class="cls-28" points="96.22 201.55 89.42 197.63 89.42 195.39 96.22 199.32 96.22 201.55"/><polygon class="cls-4" points="175.16 119.46 71.7 59.73 175.16 0 278.62 59.73 175.16 119.46"/><polygon class="cls-27" points="175.16 103.15 99.95 59.73 175.16 16.31 250.37 59.73 175.16 103.15"/><polygon class="cls-5" points="133.49 112.29 188.87 144.27 190.81 143.15 133.49 110.05 76.18 143.15 78.12 144.26 133.49 112.29"/><polygon class="cls-29" points="278.62 59.73 278.62 93.59 175.16 153.32 175.16 119.46 278.62 59.73"/><polygon class="cls-25" points="71.7 59.73 71.7 93.59 175.16 153.32 175.16 119.46 71.7 59.73"/><g class="cls-26"><polygon class="cls-27" points="78.71 74.94 78.71 85.6 168.16 137.24 168.16 126.58 78.71 74.94"/></g><polygon class="cls-5" points="175.16 117.52 73.39 58.76 71.7 59.73 175.16 119.46 278.62 59.73 276.94 58.76 175.16 117.52"/><polygon class="cls-27" points="263.1 83.46 263.1 89.52 190.68 131.33 190.68 125.27 263.1 83.46"/><polygon class="cls-30" points="71.7 59.73 71.7 93.59 175.16 153.32 175.16 119.46 71.7 59.73"/><polygon class="cls-28" points="144.96 117.66 126.23 106.85 126.22 109.08 144.96 119.9 144.96 117.66"/><polygon class="cls-28" points="123.53 105.31 118.45 102.38 118.45 104.61 123.52 107.54 123.53 105.31"/><polygon class="cls-28" points="99.75 91.58 89.36 85.59 89.36 87.82 99.75 93.82 99.75 91.58"/><polygon class="cls-28" points="109.22 97.06 101.71 92.72 101.71 94.95 109.22 99.29 109.22 97.06"/><polygon class="cls-28" points="116.27 101.12 111.19 98.19 111.19 100.43 116.27 103.36 116.27 101.12"/><polygon class="cls-28" points="133.58 121.42 131.07 119.97 133.58 118.53 136.08 119.97 133.58 121.42"/><polygon class="cls-31" points="138.58 124.31 136.08 122.86 138.58 121.42 141.09 122.86 138.58 124.31"/><polygon class="cls-32" points="143.59 127.2 141.09 125.75 143.59 124.31 146.09 125.75 143.59 127.2"/><polygon class="cls-28" points="148.6 130.09 146.09 128.64 148.6 127.2 151.1 128.64 148.6 130.09"/><polygon class="cls-32" points="153.6 132.98 151.1 131.53 153.6 130.09 156.11 131.53 153.6 132.98"/><polygon class="cls-28" points="158.61 135.87 156.11 134.43 158.61 132.98 161.12 134.43 158.61 135.87"/><polygon class="cls-28" points="163.62 138.76 161.12 137.32 163.62 135.87 166.12 137.32 163.62 138.76"/><polygon class="cls-28" points="168.63 141.65 166.12 140.21 168.63 138.76 171.13 140.21 168.63 141.65"/><polygon class="cls-31" points="173.63 144.54 171.13 143.1 173.63 141.65 176.14 143.1 173.63 144.54"/><polygon class="cls-28" points="128.55 124.32 126.04 122.87 128.55 121.43 131.05 122.87 128.55 124.32"/><polygon class="cls-28" points="133.56 127.21 131.05 125.76 133.56 124.32 136.06 125.76 133.56 127.21"/><polygon class="cls-28" points="138.56 130.1 136.06 128.66 138.56 127.21 141.07 128.66 138.56 130.1"/><polygon class="cls-28" points="143.57 132.99 141.07 131.55 143.57 130.1 146.07 131.55 143.57 132.99"/><polygon class="cls-28" points="148.58 135.88 146.07 134.44 148.58 132.99 151.08 134.44 148.58 135.88"/><polygon class="cls-28" points="153.59 138.77 151.08 137.33 153.59 135.88 156.09 137.33 153.59 138.77"/><polygon class="cls-28" points="158.59 141.66 156.09 140.22 158.59 138.77 161.1 140.22 158.59 141.66"/><polygon class="cls-28" points="163.6 144.56 161.1 143.11 163.6 141.66 166.1 143.11 163.6 144.56"/><polygon class="cls-28" points="168.61 147.45 166.1 146 168.61 144.56 171.11 146 168.61 147.45"/><polygon class="cls-28" points="123.52 127.22 121.02 125.78 123.52 124.33 126.02 125.78 123.52 127.22"/><polygon class="cls-28" points="128.53 130.11 126.02 128.67 128.53 127.22 131.03 128.67 128.53 130.11"/><polygon class="cls-28" points="133.53 133 131.03 131.56 133.53 130.11 136.04 131.56 133.53 133"/><polygon class="cls-31" points="138.54 135.89 136.04 134.45 138.54 133 141.05 134.45 138.54 135.89"/><polygon class="cls-32" points="143.55 138.78 141.05 137.34 143.55 135.89 146.05 137.34 143.55 138.78"/><polygon class="cls-32" points="148.56 141.68 146.05 140.23 148.56 138.78 151.06 140.23 148.56 141.68"/><polygon class="cls-28" points="153.56 144.57 151.06 143.12 153.56 141.68 156.07 143.12 153.56 144.57"/><polygon class="cls-28" points="158.57 147.46 156.07 146.01 158.57 144.57 161.08 146.01 158.57 147.46"/><polygon class="cls-28" points="163.58 150.35 161.08 148.9 163.58 147.46 166.08 148.9 163.58 150.35"/><polygon class="cls-32" points="118.49 130.12 115.99 128.68 118.49 127.23 121 128.68 118.49 130.12"/><polygon class="cls-32" points="123.5 133.01 121 131.57 123.5 130.12 126 131.57 123.5 133.01"/><polygon class="cls-31" points="128.51 135.91 126 134.46 128.51 133.01 131.01 134.46 128.51 135.91"/><polygon class="cls-28" points="133.51 138.8 131.01 137.35 133.51 135.91 136.02 137.35 133.51 138.8"/><polygon class="cls-28" points="138.52 141.69 136.02 140.24 138.52 138.8 141.03 140.24 138.52 141.69"/><polygon class="cls-28" points="143.53 144.58 141.03 143.13 143.53 141.69 146.03 143.13 143.53 144.58"/><polygon class="cls-32" points="148.54 147.47 146.03 146.03 148.54 144.58 151.04 146.03 148.54 147.47"/><polygon class="cls-28" points="153.54 150.36 151.04 148.92 153.54 147.47 156.05 148.92 153.54 150.36"/><polygon class="cls-28" points="158.55 153.25 156.05 151.81 158.55 150.36 161.06 151.81 158.55 153.25"/><polygon class="cls-28" points="113.47 133.03 110.96 131.58 113.47 130.14 115.97 131.58 113.47 133.03"/><polygon class="cls-28" points="118.47 135.92 115.97 134.47 118.47 133.03 120.98 134.47 118.47 135.92"/><polygon class="cls-28" points="123.48 138.81 120.98 137.36 123.48 135.92 125.98 137.36 123.48 138.81"/><polygon class="cls-28" points="128.49 141.7 125.98 140.25 128.49 138.81 130.99 140.25 128.49 141.7"/><polygon class="cls-28" points="133.5 144.59 130.99 143.15 133.49 141.7 136 143.15 133.5 144.59"/><polygon class="cls-28" points="138.5 147.48 136 146.04 138.5 144.59 141.01 146.04 138.5 147.48"/><polygon class="cls-28" points="143.51 150.37 141.01 148.93 143.51 147.48 146.01 148.93 143.51 150.37"/><polygon class="cls-28" points="148.52 153.26 146.01 151.82 148.52 150.37 151.02 151.82 148.52 153.26"/><polygon class="cls-28" points="153.52 156.16 151.02 154.71 153.52 153.26 156.03 154.71 153.52 156.16"/><polygon class="cls-28" points="108.44 135.93 105.93 134.48 108.44 133.04 110.94 134.48 108.44 135.93"/><polygon class="cls-28" points="113.44 138.82 110.94 137.38 113.44 135.93 115.95 137.38 113.44 138.82"/><polygon class="cls-32" points="118.45 141.71 115.95 140.27 118.45 138.82 120.96 140.27 118.45 141.71"/><polygon class="cls-28" points="123.46 144.6 120.96 143.16 123.46 141.71 125.96 143.16 123.46 144.6"/><polygon class="cls-31" points="128.47 147.49 125.96 146.05 128.47 144.6 130.97 146.05 128.47 147.49"/><polygon class="cls-28" points="133.47 150.38 130.97 148.94 133.47 147.49 135.98 148.94 133.47 150.38"/><polygon class="cls-28" points="138.48 153.28 135.98 151.83 138.48 150.38 140.99 151.83 138.48 153.28"/><polygon class="cls-28" points="143.49 156.17 140.99 154.72 143.49 153.28 145.99 154.72 143.49 156.17"/><polygon class="cls-28" points="148.5 159.06 145.99 157.61 148.5 156.17 151 157.61 148.5 159.06"/><polygon class="cls-28" points="103.41 138.83 100.91 137.39 103.41 135.94 105.91 137.39 103.41 138.83"/><polygon class="cls-28" points="108.42 141.72 105.91 140.28 108.42 138.83 110.92 140.28 108.42 141.72"/><polygon class="cls-32" points="113.42 144.61 110.92 143.17 113.42 141.72 115.93 143.17 113.42 144.61"/><polygon class="cls-28" points="118.43 147.5 115.93 146.06 118.43 144.61 120.94 146.06 118.43 147.5"/><polygon class="cls-28" points="123.44 150.4 120.94 148.95 123.44 147.5 125.94 148.95 123.44 150.4"/><polygon class="cls-31" points="128.45 153.29 125.94 151.84 128.45 150.4 130.95 151.84 128.45 153.29"/><polygon class="cls-32" points="133.45 156.18 130.95 154.73 133.45 153.29 135.96 154.73 133.45 156.18"/><polygon class="cls-28" points="138.46 159.07 135.96 157.62 138.46 156.18 140.97 157.62 138.46 159.07"/><polygon class="cls-31" points="143.47 161.96 140.97 160.51 143.47 159.07 145.97 160.51 143.47 161.96"/><polygon class="cls-28" points="98.38 141.74 95.88 140.29 98.38 138.84 100.89 140.29 98.38 141.74"/><polygon class="cls-32" points="103.39 144.63 100.89 143.18 103.39 141.74 105.89 143.18 103.39 144.63"/><polygon class="cls-28" points="108.4 147.52 105.89 146.07 108.4 144.63 110.9 146.07 108.4 147.52"/><polygon class="cls-28" points="113.4 150.41 110.9 148.96 113.4 147.52 115.91 148.96 113.4 150.41"/><polygon class="cls-28" points="118.41 153.3 115.91 151.85 118.41 150.41 120.92 151.85 118.41 153.3"/><polygon class="cls-28" points="123.42 156.19 120.92 154.75 123.42 153.3 125.92 154.75 123.42 156.19"/><polygon class="cls-28" points="128.43 159.08 125.92 157.64 128.43 156.19 130.93 157.64 128.43 159.08"/><polygon class="cls-32" points="133.43 161.97 130.93 160.53 133.43 159.08 135.94 160.53 133.43 161.97"/><polygon class="cls-28" points="181.65 88.23 178.37 86.33 181.65 84.44 184.94 86.33 181.65 88.23"/><polygon class="cls-28" points="93.35 144.64 90.85 143.19 93.35 141.75 95.86 143.19 93.35 144.64"/><polygon class="cls-31" points="98.36 147.53 95.86 146.08 98.36 144.64 100.86 146.08 98.36 147.53"/><polygon class="cls-28" points="103.37 150.42 100.86 148.97 103.37 147.53 105.87 148.97 103.37 150.42"/><polygon class="cls-28" points="108.38 153.31 105.87 151.87 108.38 150.42 110.88 151.87 108.38 153.31"/><polygon class="cls-28" points="113.38 156.2 110.88 154.76 113.38 153.31 115.89 154.76 113.38 156.2"/><polygon class="cls-28" points="118.39 159.09 115.89 157.65 118.39 156.2 120.89 157.65 118.39 159.09"/><polygon class="cls-32" points="123.4 161.98 120.89 160.54 123.4 159.09 125.9 160.54 123.4 161.98"/><polygon class="cls-28" points="168.49 88.24 165.2 86.35 168.49 84.45 171.77 86.35 168.49 88.24"/><polygon class="cls-28" points="175.06 92.04 171.77 90.14 175.06 88.24 178.34 90.14 175.06 92.04"/></g></g></svg>