<svg width="118" height="358" viewBox="0 0 118 358" fill="none" xmlns="http://www.w3.org/2000/svg">
<path d="M41.671 347.73L52.2067 347.729L57.2194 307.075L41.6689 307.076L41.671 347.73Z" fill="#FFB8B8"/>
<path d="M38.9829 344.289L59.7325 344.288H59.7333C63.2402 344.288 66.6035 345.682 69.0833 348.162C71.5631 350.643 72.9563 354.007 72.9566 357.516V357.946L38.9835 357.947L38.9829 344.289Z" fill="#E4E4E4"/>
<path d="M77.0963 347.73L87.632 347.729L92.6447 307.075L77.0942 307.076L77.0963 347.73Z" fill="#FFB8B8"/>
<path d="M74.4087 344.289L95.1582 344.288H95.159C98.666 344.288 102.029 345.682 104.509 348.162C106.989 350.643 108.382 354.007 108.382 357.516V357.946L74.4093 357.947L74.4087 344.289Z" fill="#E4E4E4"/>
<path d="M58.231 204.963L60.7585 333.938L40.3132 332.67L26.1294 250.52L21.6494 194.508L58.231 204.963Z" fill="#2F2E41"/>
<path d="M93.3189 183.305L96.1841 335.983L72.3399 335.301L67.1896 244.545L58.231 211.685L21.6499 194.508L27.6223 153.433L81.3741 152.686L93.3189 183.305Z" fill="#2F2E41"/>
<path d="M33.3813 25.4726L38.8813 16.4726L52.8813 14.9726C58.3487 14.3868 60.2759 22.4425 60.3813 28.4726C60.4451 32.1198 59.7032 34.3123 57.8813 37.4726C56.2939 40.2264 55.0769 41.788 52.3813 43.4726C52.3813 43.4726 48.4198 44.2773 45.8813 44.4726C43.3429 44.6679 39.3813 44.4726 39.3813 44.4726C36.6986 42.1935 36.3813 36.4726 36.3813 36.4726L35.8813 30.9726L35.3813 27.9726L33.3813 25.4726Z" fill="#FFB8B8"/>
<path d="M67.375 54.342L70.1756 58.5865L77.6415 79.4971L71.669 160.9L36.5807 161.648L32.1021 68.2945L41.485 56.5617L67.375 54.342Z" fill="#CCCCCC"/>
<path d="M17.9172 70.5354L11.9448 69.7886C11.9448 69.7886 10.4517 70.5354 9.70517 75.7631C8.95864 80.9909 0 127.294 0 127.294L11.9448 184.052L25.3827 166.129L17.1707 134.762L25.3828 103.396L17.9172 70.5354Z" fill="#E4E4E4"/>
<path d="M49.8813 45.4727C53.8813 43.4727 63.8813 32.4727 60.3813 28.4727H66.8813C66.8813 28.4727 66.3813 34.9727 65.8813 37.9727C65.3813 40.9727 66.8813 45.4727 66.8813 45.4727H49.8813Z" fill="#FFB8B8" stroke="#FFB8B8"/>
<path d="M94.0655 69.7891H98.5448L109.743 130.281L99.2914 177.331L88.8396 160.154L91.8255 141.484L90.3329 125.054L85.1069 115.344L94.0655 69.7891Z" fill="#E4E4E4"/>
<path d="M63.0138 28.3465L59.6894 27.5151C59.6894 27.5151 57.1962 13.3816 51.3786 15.0443C45.561 16.7071 30.6016 18.3699 30.6016 11.7188C30.6016 5.06771 44.73 -0.751959 53.0408 0.0794249C61.3516 0.910809 71.9658 3.66891 74.6489 15.8757C78.9501 35.4438 65.7745 40.3864 65.7745 40.3864L65.9938 39.6739C66.6026 37.6957 66.6462 35.5866 66.1196 33.5849C65.593 31.5831 64.5172 29.7687 63.0138 28.3465V28.3465Z" fill="#2F2E41"/>
<path d="M12.6914 69.7884L36.5811 60.0797L42.1802 55.9722L58.9777 130.281L66.8165 53.7317L97.7984 69.7884L87.3466 120.572L85.8535 139.99L90.3329 155.673C90.3329 155.673 106.01 166.875 100.785 178.824C95.5587 190.774 89.5863 191.52 89.5863 191.52C89.5863 191.52 64.2035 167.622 62.7104 161.648C61.2174 155.673 58.9777 145.217 58.9777 145.217C58.9777 145.217 46.2863 193.014 31.3553 192.267C16.4243 191.52 16.4242 175.837 16.4242 175.837L20.157 159.407L26.1295 142.23L23.1432 113.851L12.6914 69.7884Z" fill="#E4E4E4"/>
<path d="M36.3813 47.9727L35.8813 42.9727L39.8813 43.4727L48.3813 44.4727L50.8813 45.4727L46.8813 48.4727L43.8813 49.4727L39.8813 50.4727L36.3813 47.9727Z" fill="#2F2E41"/>
<path d="M41.671 347.73L52.2067 347.729L57.2194 307.075L41.6689 307.076L41.671 347.73Z" fill="#FFB8B8"/>
<path d="M38.9829 344.289L59.7325 344.288H59.7333C63.2402 344.288 66.6035 345.682 69.0833 348.162C71.5631 350.643 72.9563 354.007 72.9566 357.516V357.946L38.9835 357.947L38.9829 344.289Z" fill="#E4E4E4"/>
<path d="M77.0963 347.73L87.632 347.729L92.6447 307.075L77.0942 307.076L77.0963 347.73Z" fill="#FFB8B8"/>
<path d="M74.4087 344.289L95.1582 344.288H95.159C98.666 344.288 102.029 345.682 104.509 348.162C106.989 350.643 108.382 354.007 108.382 357.516V357.946L74.4093 357.947L74.4087 344.289Z" fill="#E4E4E4"/>
<path d="M58.231 204.963L60.7585 333.938L40.3132 332.67L26.1294 250.52L21.6494 194.508L58.231 204.963Z" fill="#2F2E41"/>
<path d="M93.3189 183.305L96.1841 335.983L72.3399 335.301L67.1896 244.545L58.231 211.685L21.6499 194.508L27.6223 153.433L81.3741 152.686L93.3189 183.305Z" fill="#2F2E41"/>
<path d="M33.3813 25.4726L38.8813 16.4726L52.8813 14.9726C58.3487 14.3868 60.2759 22.4425 60.3813 28.4726C60.4451 32.1198 59.7032 34.3123 57.8813 37.4726C56.2939 40.2264 55.0769 41.788 52.3813 43.4726C52.3813 43.4726 48.4198 44.2773 45.8813 44.4726C43.3429 44.6679 39.3813 44.4726 39.3813 44.4726C36.6986 42.1935 36.3813 36.4726 36.3813 36.4726L35.8813 30.9726L35.3813 27.9726L33.3813 25.4726Z" fill="#FFB8B8"/>
<path d="M67.375 54.342L70.1756 58.5865L77.6415 79.4971L71.669 160.9L36.5807 161.648L32.1021 68.2945L41.485 56.5617L67.375 54.342Z" fill="#CCCCCC"/>
<path d="M17.9172 70.5354L11.9448 69.7886C11.9448 69.7886 10.4517 70.5354 9.70517 75.7631C8.95864 80.9909 0 127.294 0 127.294L11.9448 184.052L25.3827 166.129L17.1707 134.762L25.3828 103.396L17.9172 70.5354Z" fill="#E4E4E4"/>
<path d="M49.8813 45.4727C53.8813 43.4727 63.8813 32.4727 60.3813 28.4727H66.8813C66.8813 28.4727 66.3813 34.9727 65.8813 37.9727C65.3813 40.9727 66.8813 45.4727 66.8813 45.4727H49.8813Z" fill="#FFB8B8" stroke="#FFB8B8"/>
<path d="M94.0655 69.7891H98.5448L109.743 130.281L99.2914 177.331L88.8396 160.154L91.8255 141.484L90.3329 125.054L85.1069 115.344L94.0655 69.7891Z" fill="#E4E4E4"/>
<path d="M63.0138 28.3465L59.6894 27.5151C59.6894 27.5151 57.1962 13.3816 51.3786 15.0443C45.561 16.7071 30.6016 18.3699 30.6016 11.7188C30.6016 5.06771 44.73 -0.751959 53.0408 0.0794249C61.3516 0.910809 71.9658 3.66891 74.6489 15.8757C78.9501 35.4438 65.7745 40.3864 65.7745 40.3864L65.9938 39.6739C66.6026 37.6957 66.6462 35.5866 66.1196 33.5849C65.593 31.5831 64.5172 29.7687 63.0138 28.3465V28.3465Z" fill="#2F2E41"/>
<path d="M12.6914 69.7884L36.5811 60.0797L42.1802 55.9722L58.9777 130.281L66.8165 53.7317L97.7984 69.7884L87.3466 120.572L85.8535 139.99L90.3329 155.673C90.3329 155.673 106.01 166.875 100.785 178.824C95.5587 190.774 89.5863 191.52 89.5863 191.52C89.5863 191.52 64.2035 167.622 62.7104 161.648C61.2174 155.673 58.9777 145.217 58.9777 145.217C58.9777 145.217 46.2863 193.014 31.3553 192.267C16.4243 191.52 16.4242 175.837 16.4242 175.837L20.157 159.407L26.1295 142.23L23.1432 113.851L12.6914 69.7884Z" fill="#E4E4E4"/>
<path d="M31.3813 45.4727H72.8813L117.881 336.973H8.88135L31.3813 45.4727Z" fill="#E4E4E4"/>
<path d="M46.8813 52.4727L41.8813 56.9727L36.3813 57.9727L34.8813 55.4727L34.3813 48.9727L35.3813 42.4727L39.8813 43.4727L48.3813 44.4727L53.3813 43.4727L50.3813 48.9727L46.8813 52.4727Z" fill="#2F2E41"/>
<path d="M55.8813 25.4727C56.9113 21.2297 50.8813 15.4727 50.8813 15.4727L48.8813 13.9727L51.3813 11.9727L55.3813 13.9727L59.3813 19.4727L60.8813 27.9727L59.3813 35.9727L55.3813 40.9727L48.8813 44.9727L40.8813 45.4727L36.8813 42.4727L36.3813 35.4727L40.3813 33.4727L38.8813 31.4727L34.3813 26.9727C34.3813 26.9727 43.2479 34.0078 48.8813 31.9727C52.3899 30.7052 55.0013 29.0978 55.8813 25.4727Z" fill="#2F2E41"/>
<path d="M36.44 36.4907C37.341 35.0629 38.9819 35.4901 39.9987 33.9892C41.283 32.0934 36.44 28.9862 36.44 28.9862M36.44 36.4907C36.44 36.4907 34.9149 41.4937 37.9653 43.9952C41.6258 46.997 50.1662 44.4955 50.1662 44.4955C53.7379 43.1797 55.7584 41.4937 57.7919 38.4919C60.2177 34.911 61.0847 31.7824 60.8421 27.4853M36.44 36.4907C36.44 36.4907 36.0301 35.2892 35.9316 34.4895C35.8361 33.7136 36.1737 33.2326 35.9316 32.4883C35.7135 31.8173 34.9767 31.6892 34.9149 30.9874C34.8292 30.0141 35.5725 29.4611 36.44 28.9862M36.44 28.9862C36.44 28.9862 34.9501 28.3298 33.8984 27.3425M33.8984 27.3425C33.3246 26.8039 32.8813 26.1668 32.8813 25.4841C32.8816 23.4829 39.4905 17.9796 37.4571 15.9784C35.4237 13.9772 35.9315 14.9778 35.9315 13.4769C35.9315 11.976 37.1709 9.20797 37.965 6.47266C42.5404 7.97354 51.1828 7.47326 51.1828 7.47326C51.5643 9.43004 50.0028 10.4903 50.1664 12.4763C50.2833 13.894 50.1612 14.9726 51.1832 15.9784C53.2167 17.9796 54.2334 19.4805 55.2502 21.4817C55.2502 21.4817 55.7586 24.4835 55.7586 27.4853C55.7586 30.4871 48.1329 32.9886 45.591 32.4883C43.5216 32.081 41.6591 31.0919 39.8813 29.9727C38.1352 28.8734 37.3813 28.4727 35.8813 27.9727C34.9301 27.6556 33.8984 27.3425 33.8984 27.3425Z" stroke="#2F2E41" stroke-width="2"/>
<path d="M35.8815 36.4727C36.3812 37.4727 31.4324 56.2961 36.8813 57.9727C43.3813 59.9727 54.8815 42.4727 54.8815 42.4727" stroke="#2F2E41"/>
</svg>
