<svg width="558" height="398" viewBox="0 0 558 398" fill="none" xmlns="http://www.w3.org/2000/svg">
<g clip-path="url(#clip0_54_558)">
<path d="M175.312 296.384C171.028 296.369 166.762 295.817 162.614 294.74L161.797 294.514L161.038 294.134C133.623 280.384 110.494 262.221 92.2944 240.151C77.2286 221.774 65.4827 200.91 57.5847 178.495C48.14 151.659 43.5962 123.343 44.1701 94.8983C44.1817 94.3013 44.1915 93.8403 44.1915 93.5226C44.1915 79.6955 51.8639 67.5632 63.7377 62.6139C72.8253 58.826 155.337 24.923 161.298 22.4734C172.526 16.8457 184.504 21.5429 186.42 22.3643C190.72 24.1227 266.996 55.3322 283.48 63.184C300.468 71.2763 305 85.8139 305 93.1279C305 126.241 299.267 157.188 287.961 185.109C278.83 207.709 265.888 228.573 249.7 246.793C218.466 281.954 187.224 294.419 186.923 294.529C183.189 295.814 179.261 296.442 175.312 296.384ZM167.965 278.178C170.674 278.786 176.91 279.697 180.975 278.214C186.138 276.33 212.287 262.765 236.722 235.257C270.484 197.25 287.614 149.472 287.639 93.2501C287.579 92.1111 286.77 83.9871 276.016 78.8644C259.852 71.1645 180.569 38.7339 179.77 38.4071L179.551 38.3142C177.889 37.6177 172.602 36.1506 168.957 38.0613L168.227 38.4017C167.343 38.7648 79.7563 74.7516 70.4151 78.6451C63.8807 81.3688 61.5525 88.1162 61.5525 93.5227C61.5525 93.9178 61.5422 94.4925 61.5278 95.2353C60.7812 133.704 69.68 228.365 167.965 278.178Z" fill="#3F3D56"/>
<path d="M164.929 30.3691C164.929 30.3691 76.5461 66.6824 67.0765 70.6295C57.6069 74.5766 52.8721 84.0496 52.8721 93.5227C52.8721 102.996 45.7699 226.606 164.929 286.371C164.929 286.371 175.744 289.365 183.949 286.371C192.154 283.378 296.32 232.855 296.32 93.128C296.32 93.128 296.32 78.9184 279.748 71.0242C263.176 63.13 183.054 30.3691 183.054 30.3691C183.054 30.3691 173.215 26.0273 164.929 30.3691Z" fill="#7721FF"/>
<path opacity="0.1" d="M174.399 58.7882V252.507C174.399 252.507 85.2266 209.567 86.0157 96.6803L174.399 58.7882Z" fill="black"/>
<path d="M175.561 198.016L147.156 161.479L163.675 148.627L177.125 165.926L222.561 117.944L237.756 132.345L175.561 198.016Z" fill="white"/>
<path d="M175.312 296.384C171.028 296.369 166.762 295.817 162.614 294.74L161.797 294.514L161.038 294.134C133.623 280.384 110.494 262.221 92.2944 240.151C77.2286 221.774 65.4827 200.91 57.5847 178.495C48.14 151.659 43.5962 123.343 44.1701 94.8983C44.1817 94.3013 44.1915 93.8403 44.1915 93.5226C44.1915 79.6955 51.8639 67.5632 63.7377 62.6139C72.8253 58.826 155.337 24.923 161.298 22.4734C172.526 16.8457 184.504 21.5429 186.42 22.3643C190.72 24.1227 266.996 55.3322 283.48 63.184C300.468 71.2763 305 85.8139 305 93.1279C305 126.241 299.267 157.188 287.961 185.109C278.83 207.709 265.888 228.573 249.7 246.793C218.466 281.954 187.224 294.419 186.923 294.529C183.189 295.814 179.261 296.442 175.312 296.384ZM167.965 278.178C170.674 278.786 176.91 279.697 180.975 278.214C186.138 276.33 212.287 262.765 236.722 235.257C270.484 197.25 287.614 149.472 287.639 93.2501C287.579 92.1111 286.77 83.9871 276.016 78.8644C259.852 71.1645 180.569 38.7339 179.77 38.4071L179.551 38.3142C177.889 37.6177 172.602 36.1506 168.957 38.0613L168.227 38.4017C167.343 38.7648 79.7563 74.7516 70.4151 78.6451C63.8807 81.3688 61.5525 88.1162 61.5525 93.5227C61.5525 93.9178 61.5422 94.4925 61.5278 95.2353C60.7812 133.704 69.68 228.365 167.965 278.178Z" fill="#3F3D56"/>
<path d="M164.929 30.3691C164.929 30.3691 76.5461 66.6824 67.0765 70.6295C57.6069 74.5766 52.8721 84.0496 52.8721 93.5227C52.8721 102.996 45.7699 226.606 164.929 286.371C164.929 286.371 175.744 289.365 183.949 286.371C192.154 283.378 296.32 232.855 296.32 93.128C296.32 93.128 296.32 78.9184 279.748 71.0242C263.176 63.13 183.054 30.3691 183.054 30.3691C183.054 30.3691 173.215 26.0273 164.929 30.3691Z" fill="#7721FF"/>
<path opacity="0.1" d="M174.399 58.7882V252.507C174.399 252.507 85.2266 209.567 86.0157 96.6803L174.399 58.7882Z" fill="black"/>
<path d="M157.531 197.819L129.125 161.282L145.644 148.43L159.095 165.729L204.531 117.747L219.725 132.148L157.531 197.819Z" fill="white"/>
<path d="M384.73 399.783L395.266 399.782L400.279 359.128L384.728 359.129L384.73 399.783Z" fill="#FFB8B8"/>
<path d="M382.042 396.342L402.792 396.341H402.793C406.3 396.341 409.663 397.735 412.143 400.216C414.622 402.696 416.016 406.061 416.016 409.569V409.999L382.043 410L382.042 396.342Z" fill="#E4E4E4"/>
<path d="M420.156 399.783L430.691 399.782L435.704 359.128L420.154 359.129L420.156 399.783Z" fill="#FFB8B8"/>
<path d="M417.468 396.342L438.218 396.341H438.218C441.725 396.341 445.089 397.735 447.568 400.216C450.048 402.696 451.441 406.061 451.442 409.569V409.999L417.469 410L417.468 396.342Z" fill="#E4E4E4"/>
<path d="M401.29 257.016L403.818 385.991L383.373 384.723L369.189 302.573L364.709 246.561L401.29 257.016Z" fill="#2F2E41"/>
<path d="M436.378 235.359L439.243 388.036L415.399 387.354L410.249 296.598L401.29 263.738L364.709 246.561L370.682 205.486L424.433 204.739L436.378 235.359Z" fill="#2F2E41"/>
<path d="M376.441 77.5257L381.941 68.5257L395.941 67.0257C401.408 66.4399 403.335 74.4956 403.441 80.5257C403.504 84.1729 402.762 86.3654 400.941 89.5257C399.353 92.2795 398.136 93.8411 395.441 95.5257C395.441 95.5257 391.479 96.3304 388.941 96.5257C386.402 96.721 382.441 96.5257 382.441 96.5257C379.758 94.2466 379.441 88.5257 379.441 88.5257L378.941 83.0257L378.441 80.0257L376.441 77.5257Z" fill="#FFB8B8"/>
<path d="M410.434 106.395L413.235 110.64L420.701 131.55L414.728 212.953L379.64 213.701L375.161 120.348L384.544 108.615L410.434 106.395Z" fill="#CCCCCC"/>
<path d="M360.977 122.588L355.004 121.842C355.004 121.842 353.511 122.588 352.764 127.816C352.018 133.044 343.059 179.347 343.059 179.347L355.004 236.105L368.442 218.182L360.23 186.815L368.442 155.449L360.977 122.588Z" fill="#E4E4E4"/>
<path d="M392.941 97.5257C396.941 95.5257 406.941 84.5257 403.441 80.5257H409.941C409.941 80.5257 409.441 87.0257 408.941 90.0257C408.441 93.0257 409.941 97.5257 409.941 97.5257H392.941Z" fill="#FFB8B8" stroke="#FFB8B8"/>
<path d="M437.125 121.842H441.604L452.803 182.334L442.351 229.384L431.899 212.207L434.885 193.537L433.392 177.107L428.166 167.397L437.125 121.842Z" fill="#E4E4E4"/>
<path d="M406.073 80.3996L402.749 79.5682C402.749 79.5682 400.256 65.4347 394.438 67.0974C388.62 68.7602 373.661 70.423 373.661 63.7719C373.661 57.1208 387.789 51.3011 396.1 52.1325C404.411 52.9639 415.025 55.722 417.708 67.9288C422.009 87.4969 408.834 92.4395 408.834 92.4395L409.053 91.7271C409.662 89.7488 409.706 87.6397 409.179 85.638C408.652 83.6362 407.576 81.8218 406.073 80.3996Z" fill="#2F2E41"/>
<path d="M355.751 121.842L379.64 112.133L385.24 108.025L402.037 182.334L409.876 105.785L440.858 121.842L430.406 172.625L428.913 192.043L433.392 207.726C433.392 207.726 449.07 218.928 443.844 230.878C438.618 242.827 432.646 243.574 432.646 243.574C432.646 243.574 407.263 219.675 405.77 213.701C404.277 207.726 402.037 197.271 402.037 197.271C402.037 197.271 389.346 245.067 374.415 244.32C359.484 243.574 359.484 227.89 359.484 227.89L363.216 211.46L369.189 194.283L366.203 165.904L355.751 121.842Z" fill="#E4E4E4"/>
<path d="M379.441 100.026L378.941 95.0257L382.941 95.5257L391.441 96.5257L393.941 97.5257L389.941 100.526L386.941 101.526L382.941 102.526L379.441 100.026Z" fill="#2F2E41"/>
<path d="M384.73 399.783L395.266 399.782L400.279 359.128L384.728 359.129L384.73 399.783Z" fill="#FFB8B8"/>
<path d="M382.042 396.342L402.792 396.341H402.793C406.3 396.341 409.663 397.735 412.143 400.216C414.622 402.696 416.016 406.061 416.016 409.569V409.999L382.043 410L382.042 396.342Z" fill="#E4E4E4"/>
<path d="M420.156 399.783L430.691 399.782L435.704 359.128L420.154 359.129L420.156 399.783Z" fill="#FFB8B8"/>
<path d="M417.468 396.342L438.218 396.341H438.218C441.725 396.341 445.089 397.735 447.568 400.216C450.048 402.696 451.441 406.061 451.442 409.569V409.999L417.469 410L417.468 396.342Z" fill="#E4E4E4"/>
<path d="M401.29 257.016L403.818 385.991L383.373 384.723L369.189 302.573L364.709 246.561L401.29 257.016Z" fill="#2F2E41"/>
<path d="M436.378 235.359L439.243 388.036L415.399 387.354L404.5 296L401.29 263.738L364.709 246.561L370.682 205.486L424.433 204.739L436.378 235.359Z" fill="#2F2E41"/>
<path d="M376.441 77.5257L381.941 68.5257L395.941 67.0257C401.408 66.4399 403.335 74.4956 403.441 80.5257C403.504 84.1729 402.762 86.3654 400.941 89.5257C399.353 92.2795 398.136 93.8411 395.441 95.5257C395.441 95.5257 391.479 96.3304 388.941 96.5257C386.402 96.721 382.441 96.5257 382.441 96.5257C379.758 94.2466 379.441 88.5257 379.441 88.5257L378.941 83.0257L378.441 80.0257L376.441 77.5257Z" fill="#FFB8B8"/>
<path d="M410.434 106.395L413.235 110.64L420.701 131.55L414.728 212.953L379.64 213.701L375.161 120.348L384.544 108.615L410.434 106.395Z" fill="#CCCCCC"/>
<path d="M360.977 122.588L355.004 121.842C355.004 121.842 353.511 122.588 352.764 127.816C352.018 133.044 343.059 179.347 343.059 179.347L355.004 236.105L368.442 218.182L360.23 186.815L368.442 155.449L360.977 122.588Z" fill="#E4E4E4"/>
<path d="M392.941 97.5257C396.941 95.5257 406.941 84.5257 403.441 80.5257H409.941C409.941 80.5257 409.441 87.0257 408.941 90.0257C408.441 93.0257 409.941 97.5257 409.941 97.5257H392.941Z" fill="#FFB8B8" stroke="#FFB8B8"/>
<path d="M437.125 121.842H441.604L452.803 182.334L442.351 229.384L431.899 212.207L434.885 193.537L433.392 177.107L428.166 167.397L437.125 121.842Z" fill="#E4E4E4"/>
<path d="M406.073 80.3996L402.749 79.5682C402.749 79.5682 400.256 65.4347 394.438 67.0974C388.62 68.7602 373.661 70.423 373.661 63.7719C373.661 57.1208 387.789 51.3011 396.1 52.1325C404.411 52.9639 415.025 55.722 417.708 67.9288C422.009 87.4969 408.834 92.4395 408.834 92.4395L409.053 91.7271C409.662 89.7488 409.706 87.6397 409.179 85.638C408.652 83.6362 407.576 81.8218 406.073 80.3996Z" fill="#2F2E41"/>
<path d="M355.751 121.842L379.64 112.133L385.24 108.025L402.037 182.334L409.876 105.785L440.858 121.842L430.406 172.625L428.913 192.043L433.392 207.726C433.392 207.726 449.07 218.928 443.844 230.878C438.618 242.827 432.646 243.574 432.646 243.574C432.646 243.574 407.263 219.675 405.77 213.701C404.277 207.726 402.037 197.271 402.037 197.271C402.037 197.271 389.346 245.067 374.415 244.32C359.484 243.574 359.484 227.89 359.484 227.89L363.216 211.46L369.189 194.283L366.203 165.904L355.751 121.842Z" fill="#E4E4E4"/>
<path d="M389.941 104.526L384.941 109.026L379.441 110.026L377.941 107.526L377.441 101.026L378.441 94.5257L382.941 95.5257L391.441 96.5257L396.441 95.5257L393.441 101.026L389.941 104.526Z" fill="#2F2E41"/>
<path d="M398.941 77.5257C399.971 73.2827 393.941 67.5257 393.941 67.5257L391.941 66.0257L394.441 64.0257L398.441 66.0257L402.441 71.5257L403.941 80.0257L402.441 88.0257L398.441 93.0257L391.941 97.0257L383.941 97.5257L379.941 94.5257L379.441 87.5257L383.441 85.5257L381.941 83.5257L377.441 79.0257C377.441 79.0257 386.307 86.0608 391.941 84.0257C395.449 82.7582 398.061 81.1509 398.941 77.5257Z" fill="#2F2E41"/>
<path d="M379.499 88.5437C380.4 87.116 382.041 87.5431 383.058 86.0422C384.342 84.1464 379.499 81.0392 379.499 81.0392M379.499 88.5437C379.499 88.5437 377.974 93.5467 381.025 96.0482C384.685 99.05 393.226 96.5485 393.226 96.5485C396.797 95.2328 398.818 93.5467 400.851 90.5449C403.277 86.964 404.144 83.8354 403.901 79.5383M379.499 88.5437C379.499 88.5437 379.089 87.3422 378.991 86.5425C378.895 85.7667 379.233 85.2857 378.991 84.5413C378.773 83.8704 378.036 83.7422 377.974 83.0404C377.889 82.0672 378.632 81.5141 379.499 81.0392M379.499 81.0392C379.499 81.0392 378.009 80.3828 376.958 79.3955M376.958 79.3955C376.384 78.8569 375.941 78.2198 375.941 77.5371C375.941 75.5359 382.55 70.0326 380.516 68.0314C378.483 66.0302 378.991 67.0308 378.991 65.5299C378.991 64.029 380.23 61.261 381.024 58.5257C385.6 60.0266 394.242 59.5263 394.242 59.5263C394.624 61.4831 393.062 62.5434 393.226 64.5293C393.343 65.947 393.22 67.0256 394.243 68.0314C396.276 70.0326 397.293 71.5335 398.31 73.5347C398.31 73.5347 398.818 76.5365 398.818 79.5383C398.818 82.5401 391.192 85.0416 388.65 84.5413C386.581 84.134 384.718 83.1449 382.941 82.0257C381.195 80.9264 380.441 80.5257 378.941 80.0257C377.989 79.7086 376.958 79.3955 376.958 79.3955Z" stroke="#2F2E41" stroke-width="2"/>
<path d="M378.941 88.5257C379.44 89.5257 374.492 108.349 379.941 110.026C386.441 112.026 397.941 94.5257 397.941 94.5257" stroke="#2F2E41"/>
</g>
<defs>
<clipPath id="clip0_54_558">
<rect width="558" height="398" fill="white"/>
</clipPath>
</defs>
</svg>
