<svg width="56" height="37" viewBox="0 0 56 37" fill="none" xmlns="http://www.w3.org/2000/svg">
<g filter="url(#filter0_d_368_3118)">
<path d="M35.9006 35.972L40.8928 35.9819L40.9564 3.78722C40.9564 3.78722 40.886 1.17079 38.4657 1.06699L33.9244 1L33.855 34.1423C33.7774 35.1227 34.9929 35.9702 35.9006 35.972Z" fill="url(#paint0_linear_368_3118)"/>
<path d="M35.9006 35.972L40.8928 35.9819L40.9564 3.78722C40.9564 3.78722 40.886 1.17079 38.4657 1.06699L33.9244 1L33.855 34.1423C33.7774 35.1227 34.9929 35.9702 35.9006 35.972Z" fill="url(#paint1_linear_368_3118)"/>
<path d="M35.9006 35.972L40.8928 35.9819L40.9564 3.78722C40.9564 3.78722 40.886 1.17079 38.4657 1.06699L33.9244 1L33.855 34.1423C33.7774 35.1227 34.9929 35.9702 35.9006 35.972Z" fill="url(#paint2_linear_368_3118)"/>
</g>
<g filter="url(#filter1_d_368_3118)">
<path d="M49.9108 35.972L54.903 35.9819L54.9667 3.78722C54.9667 3.78722 54.8962 1.17079 52.4759 1.06699L47.9346 1L47.8652 34.1423C47.7876 35.1227 49.0032 35.9702 49.9108 35.972Z" fill="url(#paint3_linear_368_3118)"/>
<path d="M49.9108 35.972L54.903 35.9819L54.9667 3.78722C54.9667 3.78722 54.8962 1.17079 52.4759 1.06699L47.9346 1L47.8652 34.1423C47.7876 35.1227 49.0032 35.9702 49.9108 35.972Z" fill="url(#paint4_linear_368_3118)"/>
<path d="M49.9108 35.972L54.903 35.9819L54.9667 3.78722C54.9667 3.78722 54.8962 1.17079 52.4759 1.06699L47.9346 1L47.8652 34.1423C47.7876 35.1227 49.0032 35.9702 49.9108 35.972Z" fill="url(#paint5_linear_368_3118)"/>
</g>
<g filter="url(#filter2_d_368_3118)">
<path d="M54.922 17.1325V21.7212L35.5195 21.7212C35.5195 21.7212 33.9428 21.6517 33.8831 19.4268L33.8481 15.2525L53.8218 15.2489C54.4127 15.1794 54.922 16.2982 54.922 17.1325Z" fill="url(#paint6_linear_368_3118)"/>
</g>
<g filter="url(#filter3_d_368_3118)">
<path d="M1.23535 15.7169V6.18042H8.17394L8.18169 15.7169H1.23535Z" fill="url(#paint7_linear_368_3118)"/>
</g>
<g filter="url(#filter4_d_368_3118)">
<path d="M15.2461 30.4337V21.0149H22.1847L22.1924 30.4337H15.2461Z" fill="url(#paint8_linear_368_3118)"/>
</g>
<g filter="url(#filter5_d_368_3118)">
<path d="M22.427 4.92513V1H2.88364C2.88364 1 1.29546 1.05947 1.23535 2.96257V6.53352L20.7007 6.53087C21.296 6.59034 22.427 5.63879 22.427 4.92513Z" fill="url(#paint9_linear_368_3118)"/>
</g>
<g filter="url(#filter6_d_368_3118)">
<path d="M22.1916 34.359V30.4338H2.64828C2.64828 30.4338 1.06011 30.4933 1 32.3964V35.9674L20.4653 35.9647C21.0606 36.0242 22.1916 35.0726 22.1916 34.359Z" fill="url(#paint10_linear_368_3118)"/>
</g>
<g filter="url(#filter7_d_368_3118)">
<path d="M22.427 17.0255V21.3682H2.88364C2.88364 21.3682 1.29546 21.3024 1.23535 19.1968V15.246L20.7007 15.2489C21.296 15.1831 22.427 16.2359 22.427 17.0255Z" fill="url(#paint11_linear_368_3118)"/>
</g>
<defs>
<filter id="filter0_d_368_3118" x="32.8516" y="0" width="9.10498" height="36.9819" filterUnits="userSpaceOnUse" color-interpolation-filters="sRGB">
<feFlood flood-opacity="0" result="BackgroundImageFix"/>
<feColorMatrix in="SourceAlpha" type="matrix" values="0 0 0 0 0 0 0 0 0 0 0 0 0 0 0 0 0 0 127 0" result="hardAlpha"/>
<feOffset/>
<feGaussianBlur stdDeviation="0.5"/>
<feComposite in2="hardAlpha" operator="out"/>
<feColorMatrix type="matrix" values="0 0 0 0 0 0 0 0 0 0 0 0 0 0 0 0 0 0 1 0"/>
<feBlend mode="normal" in2="BackgroundImageFix" result="effect1_dropShadow_368_3118"/>
<feBlend mode="normal" in="SourceGraphic" in2="effect1_dropShadow_368_3118" result="shape"/>
</filter>
<filter id="filter1_d_368_3118" x="46.8618" y="0" width="9.10498" height="36.9819" filterUnits="userSpaceOnUse" color-interpolation-filters="sRGB">
<feFlood flood-opacity="0" result="BackgroundImageFix"/>
<feColorMatrix in="SourceAlpha" type="matrix" values="0 0 0 0 0 0 0 0 0 0 0 0 0 0 0 0 0 0 127 0" result="hardAlpha"/>
<feOffset/>
<feGaussianBlur stdDeviation="0.5"/>
<feComposite in2="hardAlpha" operator="out"/>
<feColorMatrix type="matrix" values="0 0 0 0 0 0 0 0 0 0 0 0 0 0 0 0 0 0 1 0"/>
<feBlend mode="normal" in2="BackgroundImageFix" result="effect1_dropShadow_368_3118"/>
<feBlend mode="normal" in="SourceGraphic" in2="effect1_dropShadow_368_3118" result="shape"/>
</filter>
<filter id="filter2_d_368_3118" x="32.8481" y="14.2458" width="23.0737" height="8.47534" filterUnits="userSpaceOnUse" color-interpolation-filters="sRGB">
<feFlood flood-opacity="0" result="BackgroundImageFix"/>
<feColorMatrix in="SourceAlpha" type="matrix" values="0 0 0 0 0 0 0 0 0 0 0 0 0 0 0 0 0 0 127 0" result="hardAlpha"/>
<feOffset/>
<feGaussianBlur stdDeviation="0.5"/>
<feComposite in2="hardAlpha" operator="out"/>
<feColorMatrix type="matrix" values="0 0 0 0 0 0 0 0 0 0 0 0 0 0 0 0 0 0 1 0"/>
<feBlend mode="normal" in2="BackgroundImageFix" result="effect1_dropShadow_368_3118"/>
<feBlend mode="normal" in="SourceGraphic" in2="effect1_dropShadow_368_3118" result="shape"/>
</filter>
<filter id="filter3_d_368_3118" x="0.235352" y="5.18042" width="8.94629" height="11.5364" filterUnits="userSpaceOnUse" color-interpolation-filters="sRGB">
<feFlood flood-opacity="0" result="BackgroundImageFix"/>
<feColorMatrix in="SourceAlpha" type="matrix" values="0 0 0 0 0 0 0 0 0 0 0 0 0 0 0 0 0 0 127 0" result="hardAlpha"/>
<feOffset/>
<feGaussianBlur stdDeviation="0.5"/>
<feComposite in2="hardAlpha" operator="out"/>
<feColorMatrix type="matrix" values="0 0 0 0 0 0 0 0 0 0 0 0 0 0 0 0 0 0 1 0"/>
<feBlend mode="normal" in2="BackgroundImageFix" result="effect1_dropShadow_368_3118"/>
<feBlend mode="normal" in="SourceGraphic" in2="effect1_dropShadow_368_3118" result="shape"/>
</filter>
<filter id="filter4_d_368_3118" x="14.2461" y="20.0149" width="8.94629" height="11.4187" filterUnits="userSpaceOnUse" color-interpolation-filters="sRGB">
<feFlood flood-opacity="0" result="BackgroundImageFix"/>
<feColorMatrix in="SourceAlpha" type="matrix" values="0 0 0 0 0 0 0 0 0 0 0 0 0 0 0 0 0 0 127 0" result="hardAlpha"/>
<feOffset/>
<feGaussianBlur stdDeviation="0.5"/>
<feComposite in2="hardAlpha" operator="out"/>
<feColorMatrix type="matrix" values="0 0 0 0 0 0 0 0 0 0 0 0 0 0 0 0 0 0 1 0"/>
<feBlend mode="normal" in2="BackgroundImageFix" result="effect1_dropShadow_368_3118"/>
<feBlend mode="normal" in="SourceGraphic" in2="effect1_dropShadow_368_3118" result="shape"/>
</filter>
<filter id="filter5_d_368_3118" x="0.235352" y="0" width="23.1914" height="7.53345" filterUnits="userSpaceOnUse" color-interpolation-filters="sRGB">
<feFlood flood-opacity="0" result="BackgroundImageFix"/>
<feColorMatrix in="SourceAlpha" type="matrix" values="0 0 0 0 0 0 0 0 0 0 0 0 0 0 0 0 0 0 127 0" result="hardAlpha"/>
<feOffset/>
<feGaussianBlur stdDeviation="0.5"/>
<feComposite in2="hardAlpha" operator="out"/>
<feColorMatrix type="matrix" values="0 0 0 0 0 0 0 0 0 0 0 0 0 0 0 0 0 0 1 0"/>
<feBlend mode="normal" in2="BackgroundImageFix" result="effect1_dropShadow_368_3118"/>
<feBlend mode="normal" in="SourceGraphic" in2="effect1_dropShadow_368_3118" result="shape"/>
</filter>
<filter id="filter6_d_368_3118" x="0" y="29.4338" width="23.1914" height="7.53345" filterUnits="userSpaceOnUse" color-interpolation-filters="sRGB">
<feFlood flood-opacity="0" result="BackgroundImageFix"/>
<feColorMatrix in="SourceAlpha" type="matrix" values="0 0 0 0 0 0 0 0 0 0 0 0 0 0 0 0 0 0 127 0" result="hardAlpha"/>
<feOffset/>
<feGaussianBlur stdDeviation="0.5"/>
<feComposite in2="hardAlpha" operator="out"/>
<feColorMatrix type="matrix" values="0 0 0 0 0 0 0 0 0 0 0 0 0 0 0 0 0 0 1 0"/>
<feBlend mode="normal" in2="BackgroundImageFix" result="effect1_dropShadow_368_3118"/>
<feBlend mode="normal" in="SourceGraphic" in2="effect1_dropShadow_368_3118" result="shape"/>
</filter>
<filter id="filter7_d_368_3118" x="0.235352" y="14.2458" width="23.1914" height="8.12231" filterUnits="userSpaceOnUse" color-interpolation-filters="sRGB">
<feFlood flood-opacity="0" result="BackgroundImageFix"/>
<feColorMatrix in="SourceAlpha" type="matrix" values="0 0 0 0 0 0 0 0 0 0 0 0 0 0 0 0 0 0 127 0" result="hardAlpha"/>
<feOffset/>
<feGaussianBlur stdDeviation="0.5"/>
<feComposite in2="hardAlpha" operator="out"/>
<feColorMatrix type="matrix" values="0 0 0 0 0 0 0 0 0 0 0 0 0 0 0 0 0 0 1 0"/>
<feBlend mode="normal" in2="BackgroundImageFix" result="effect1_dropShadow_368_3118"/>
<feBlend mode="normal" in="SourceGraphic" in2="effect1_dropShadow_368_3118" result="shape"/>
</filter>
<linearGradient id="paint0_linear_368_3118" x1="33.8479" y1="18.8957" x2="40.912" y2="18.8855" gradientUnits="userSpaceOnUse">
<stop stop-color="#B900E8"/>
<stop offset="0.979167" stop-color="#8600FC"/>
</linearGradient>
<linearGradient id="paint1_linear_368_3118" x1="33.8479" y1="18.8957" x2="40.912" y2="18.8855" gradientUnits="userSpaceOnUse">
<stop stop-color="#B900E8"/>
<stop offset="0.979167" stop-color="#8600FC"/>
</linearGradient>
<linearGradient id="paint2_linear_368_3118" x1="33.8479" y1="18.8957" x2="40.912" y2="18.8855" gradientUnits="userSpaceOnUse">
<stop stop-color="#B900E8"/>
<stop offset="0.979167" stop-color="#8600FC"/>
</linearGradient>
<linearGradient id="paint3_linear_368_3118" x1="47.8582" y1="18.8957" x2="54.9223" y2="18.8855" gradientUnits="userSpaceOnUse">
<stop stop-color="#B900E8"/>
<stop offset="0.979167" stop-color="#8600FC"/>
</linearGradient>
<linearGradient id="paint4_linear_368_3118" x1="47.8582" y1="18.8957" x2="54.9223" y2="18.8855" gradientUnits="userSpaceOnUse">
<stop stop-color="#B900E8"/>
<stop offset="0.979167" stop-color="#8600FC"/>
</linearGradient>
<linearGradient id="paint5_linear_368_3118" x1="47.8582" y1="18.8957" x2="54.9223" y2="18.8855" gradientUnits="userSpaceOnUse">
<stop stop-color="#B900E8"/>
<stop offset="0.979167" stop-color="#8600FC"/>
</linearGradient>
<linearGradient id="paint6_linear_368_3118" x1="33.8481" y1="18.4835" x2="54.9226" y2="18.4835" gradientUnits="userSpaceOnUse">
<stop stop-color="#B900E8"/>
<stop offset="0.980991" stop-color="#8600FC"/>
</linearGradient>
<linearGradient id="paint7_linear_368_3118" x1="1.23535" y1="10.3526" x2="8.17405" y2="10.4048" gradientUnits="userSpaceOnUse">
<stop offset="0.00552284" stop-color="#CD00E0"/>
<stop offset="1" stop-color="#8700FB"/>
</linearGradient>
<linearGradient id="paint8_linear_368_3118" x1="15.2461" y1="25.1356" x2="22.1848" y2="25.1885" gradientUnits="userSpaceOnUse">
<stop offset="0.00552284" stop-color="#CD00E0"/>
<stop offset="1" stop-color="#8700FB"/>
</linearGradient>
<linearGradient id="paint9_linear_368_3118" x1="1.23535" y1="3.53129" x2="22.7219" y2="3.47242" gradientUnits="userSpaceOnUse">
<stop stop-color="#B900E8"/>
<stop offset="0.979167" stop-color="#8600FC"/>
</linearGradient>
<linearGradient id="paint10_linear_368_3118" x1="1" y1="32.9651" x2="22.4866" y2="32.9063" gradientUnits="userSpaceOnUse">
<stop stop-color="#B900E8"/>
<stop offset="0.979167" stop-color="#8600FC"/>
</linearGradient>
<linearGradient id="paint11_linear_368_3118" x1="1.23535" y1="18.5676" x2="22.7219" y2="18.6208" gradientUnits="userSpaceOnUse">
<stop stop-color="#B900E8"/>
<stop offset="0.979167" stop-color="#8600FC"/>
</linearGradient>
</defs>
</svg>
