<svg width="728" height="486" viewBox="0 0 728 486" fill="none" xmlns="http://www.w3.org/2000/svg" className="dark:first:fill[#000]">
<path d="M658.87 145.95C658.87 167.092 652.297 187.712 640.059 204.955C627.822 222.199 610.525 235.214 590.563 242.199C589.928 242.42 589.284 242.642 588.639 242.843V139.257H455.133C455.171 138.612 455.219 137.968 455.277 137.333H588.639V117.099C588.639 115.824 588.132 114.601 587.23 113.699C586.328 112.797 585.104 112.291 583.829 112.29H460.607C460.828 111.646 461.059 111.001 461.309 110.367C469.657 87.9686 485.612 69.2144 506.386 57.3805C527.161 45.5466 551.434 41.3853 574.966 45.6238C598.498 49.8622 619.792 62.2308 635.128 80.5688C650.465 98.9068 658.868 122.048 658.87 145.95Z" fill="#F2F2F2"/>
<path d="M583.829 110.367H115.301C113.515 110.369 111.804 111.079 110.541 112.341C109.279 113.603 108.568 115.314 108.566 117.099V434.466C108.568 436.251 109.279 437.962 110.541 439.224C111.804 440.486 113.515 441.196 115.301 441.198H583.829C585.614 441.196 587.326 440.486 588.588 439.224C589.851 437.962 590.561 436.251 590.563 434.466V117.099C590.561 115.314 589.851 113.603 588.588 112.341C587.326 111.079 585.614 110.369 583.829 110.367ZM588.639 434.466C588.638 435.741 588.131 436.964 587.229 437.866C586.327 438.767 585.104 439.274 583.829 439.275H115.301C114.025 439.274 112.802 438.767 111.9 437.866C110.998 436.964 110.491 435.741 110.491 434.466V117.099C110.491 115.824 110.998 114.601 111.9 113.699C112.802 112.797 114.025 112.291 115.301 112.29H583.829C585.104 112.291 586.327 112.797 587.229 113.699C588.131 114.601 588.638 115.824 588.639 117.099V434.466Z" fill="#3F3D56"/>
<path d="M589.601 137.333H109.528V139.257H589.601V137.333Z" fill="#3F3D56"/>
<path d="M125.884 130.563C129.072 130.563 131.656 127.979 131.656 124.792C131.656 121.606 129.072 119.022 125.884 119.022C122.696 119.022 120.111 121.606 120.111 124.792C120.111 127.979 122.696 130.563 125.884 130.563Z" fill="#3F3D56"/>
<path d="M142.479 130.563C145.667 130.563 148.252 127.979 148.252 124.792C148.252 121.606 145.667 119.022 142.479 119.022C139.291 119.022 136.707 121.606 136.707 124.792C136.707 127.979 139.291 130.563 142.479 130.563Z" fill="#3F3D56"/>
<path d="M159.075 130.563C162.263 130.563 164.848 127.979 164.848 124.792C164.848 121.606 162.263 119.022 159.075 119.022C155.887 119.022 153.303 121.606 153.303 124.792C153.303 127.979 155.887 130.563 159.075 130.563Z" fill="#3F3D56"/>
<path d="M240.37 176.725H155.708C153.922 176.727 152.21 177.437 150.948 178.699C149.685 179.961 148.975 181.673 148.973 183.457V268.089C148.975 269.873 149.685 271.585 150.948 272.847C152.21 274.109 153.922 274.819 155.708 274.821H240.37C242.155 274.819 243.867 274.109 245.13 272.847C246.392 271.585 247.102 269.873 247.104 268.089V183.457C247.102 181.673 246.392 179.961 245.13 178.699C243.867 177.437 242.155 176.727 240.37 176.725ZM245.18 268.089C245.18 269.364 244.673 270.587 243.771 271.488C242.869 272.39 241.645 272.897 240.37 272.897H155.708C154.432 272.897 153.209 272.39 152.307 271.488C151.405 270.587 150.898 269.364 150.897 268.089V183.457C150.898 182.182 151.405 180.959 152.307 180.058C153.209 179.156 154.432 178.649 155.708 178.649H240.37C241.645 178.649 242.869 179.156 243.771 180.058C244.673 180.959 245.18 182.182 245.18 183.457V268.089Z" fill="#3F3D56"/>
<path d="M392.376 177.206H307.714C306.057 177.209 304.468 177.869 303.296 179.041C302.124 180.212 301.464 181.8 301.461 183.457V268.089C301.464 269.746 302.124 271.334 303.296 272.505C304.468 273.677 306.057 274.337 307.714 274.34H392.376C394.034 274.337 395.623 273.677 396.795 272.505C397.967 271.334 398.627 269.746 398.63 268.089V183.457C398.627 181.8 397.967 180.212 396.795 179.041C395.623 177.869 394.034 177.209 392.376 177.206Z" fill="#7721FF"/>
<path d="M544.384 177.206H459.722C458.064 177.209 456.475 177.869 455.303 179.041C454.131 180.212 453.471 181.8 453.468 183.457V268.089C453.471 269.746 454.131 271.334 455.303 272.505C456.475 273.677 458.064 274.337 459.722 274.34H544.384C546.041 274.337 547.63 273.677 548.802 272.505C549.974 271.334 550.634 269.746 550.637 268.089V183.457C550.634 181.8 549.974 180.212 548.802 179.041C547.63 177.869 546.041 177.209 544.384 177.206Z" fill="#E6E6E6"/>
<path d="M240.37 304.153H155.708C154.05 304.156 152.461 304.816 151.289 305.988C150.117 307.159 149.457 308.747 149.454 310.404V395.036C149.457 396.693 150.117 398.281 151.289 399.452C152.461 400.624 154.05 401.284 155.708 401.287H240.37C242.027 401.284 243.616 400.624 244.788 399.452C245.96 398.281 246.62 396.693 246.623 395.036V310.404C246.62 308.747 245.96 307.159 244.788 305.988C243.616 304.816 242.027 304.156 240.37 304.153Z" fill="#E6E6E6"/>
<path d="M392.376 304.153H307.714C306.057 304.156 304.468 304.816 303.296 305.988C302.124 307.159 301.464 308.747 301.461 310.404V395.036C301.464 396.693 302.124 398.281 303.296 399.452C304.468 400.624 306.057 401.284 307.714 401.287H392.376C394.034 401.284 395.623 400.624 396.795 399.452C397.967 398.281 398.627 396.693 398.63 395.036V310.404C398.627 308.747 397.967 307.159 396.795 305.988C395.623 304.816 394.034 304.156 392.376 304.153Z" fill="#7721FF"/>
<path d="M544.384 304.153H459.722C458.064 304.156 456.475 304.816 455.303 305.988C454.131 307.159 453.471 308.747 453.468 310.404V395.036C453.471 396.693 454.131 398.281 455.303 399.452C456.475 400.624 458.064 401.284 459.722 401.287H544.384C546.041 401.284 547.63 400.624 548.802 399.452C549.974 398.281 550.634 396.693 550.637 395.036V310.404C550.634 308.747 549.974 307.159 548.802 305.988C547.63 304.816 546.041 304.156 544.384 304.153Z" fill="#E6E6E6"/>
<path d="M219.686 318.098H135.023C133.366 318.096 131.776 317.437 130.604 316.265C129.431 315.093 128.772 313.504 128.77 311.847V227.216C128.772 225.558 129.431 223.969 130.604 222.797C131.776 221.625 133.366 220.966 135.023 220.964H219.686C221.343 220.966 222.933 221.625 224.105 222.797C225.278 223.969 225.937 225.558 225.939 227.216V311.847C225.937 313.504 225.278 315.093 224.105 316.265C222.933 317.437 221.343 318.096 219.686 318.098Z" fill="#7721FF"/>
</svg>

