<svg width="461" height="389" viewBox="0 0 461 389" fill="none" xmlns="http://www.w3.org/2000/svg">
<g clip-path="url(#clip0_368_3032)">
<path d="M246.562 54.6386C261.856 43.3678 283.387 39.0471 300.234 47.8399C281.268 56.0554 265.826 70.6989 256.64 89.1795C253.124 96.3195 249.957 104.626 242.701 107.926C238.187 109.979 232.858 109.583 228.183 107.925C223.508 106.267 219.349 103.45 215.249 100.663L214.019 100.516C221.317 82.9996 231.269 65.9095 246.562 54.6386Z" fill="#F0F0F0"/>
<path d="M300.099 48.2143C284.369 48.706 269.194 54.1299 256.729 63.7156C254.009 65.7316 251.625 68.1628 249.664 70.9197C247.84 73.6668 246.787 76.8509 246.614 80.1412C246.392 83.2059 246.519 86.3664 245.554 89.3237C245.037 90.8301 244.207 92.2105 243.117 93.3744C242.028 94.5382 240.705 95.4593 239.234 96.0771C235.609 97.7116 231.611 97.9492 227.694 98.046C223.345 98.1535 218.825 98.1964 214.869 100.24C214.39 100.487 214.033 99.7308 214.512 99.4836C221.394 95.9288 229.436 98.2481 236.669 96.1325C240.044 95.1453 243.142 93.1373 244.497 89.7778C245.682 86.8401 245.553 83.5808 245.752 80.4758C245.873 77.2635 246.781 74.1298 248.396 71.3483C250.211 68.5007 252.497 65.982 255.158 63.8998C261.075 59.1168 267.708 55.2915 274.815 52.5642C282.91 49.4067 291.486 47.6538 300.172 47.3813C300.71 47.3647 300.633 48.1977 300.099 48.2143V48.2143Z" fill="white"/>
<path d="M260.561 60.3932C259.232 58.0885 258.769 55.3879 259.252 52.7736C259.736 50.1593 261.135 47.8016 263.2 46.1215C263.619 45.783 264.166 46.4167 263.746 46.7556C261.82 48.3166 260.517 50.513 260.072 52.9483C259.627 55.3836 260.069 57.8975 261.318 60.0363C261.589 60.5014 260.83 60.8556 260.561 60.3932V60.3932Z" fill="white"/>
<path d="M246.522 78.5725C251.768 80.0354 257.374 79.4719 262.223 76.9943C262.703 76.7485 263.06 77.5048 262.58 77.7503C257.53 80.3191 251.695 80.8937 246.239 79.3595C245.72 79.2129 246.005 78.4267 246.522 78.5725Z" fill="white"/>
<path d="M282.87 50.5145C283.197 51.5131 283.768 52.4148 284.532 53.1387C285.295 53.8627 286.227 54.3861 287.243 54.6621C287.764 54.802 287.478 55.5881 286.96 55.449C285.839 55.1389 284.811 54.5596 283.965 53.7616C283.12 52.9636 282.484 51.9713 282.112 50.8714C282.068 50.7707 282.064 50.6571 282.102 50.5537C282.139 50.4503 282.214 50.365 282.312 50.3149C282.412 50.2682 282.528 50.2629 282.632 50.3003C282.736 50.3377 282.822 50.4146 282.87 50.5145H282.87Z" fill="white"/>
<path d="M313.592 110.667C313.264 110.589 312.936 110.511 312.602 110.437C308.185 109.409 303.692 108.741 299.166 108.439C298.817 108.41 298.462 108.386 298.112 108.367C287.201 107.756 276.272 109.171 265.879 112.54C261.744 113.885 257.718 115.541 253.836 117.495C248.474 120.194 242.876 123.545 237.103 124.297C236.502 124.382 235.896 124.43 235.289 124.441L213.934 102.024C213.911 101.948 213.882 101.878 213.859 101.802L212.966 100.946C213.159 100.831 213.362 100.717 213.555 100.602C213.667 100.535 213.783 100.473 213.895 100.406C213.971 100.363 214.047 100.32 214.113 100.277C214.139 100.262 214.164 100.248 214.184 100.238C214.25 100.195 214.317 100.162 214.378 100.124C215.51 99.4786 216.648 98.8404 217.793 98.209C217.798 98.2041 217.798 98.2041 217.808 98.2042C226.545 93.4152 235.759 89.3119 245.305 86.7342C245.592 86.6568 245.885 86.5742 246.181 86.507C250.491 85.3689 254.886 84.5841 259.323 84.1605C261.754 83.9363 264.194 83.835 266.635 83.8569C272.942 83.9258 279.198 84.984 285.175 86.9925C297.089 90.9982 307.587 98.7608 313.173 109.818C313.316 110.101 313.454 110.379 313.592 110.667Z" fill="#F0F0F0"/>
<path d="M313.259 110.887C300.402 101.831 285.013 97.047 269.276 97.2139C265.887 97.1898 262.516 97.6988 259.287 98.722C256.173 99.8201 253.411 101.73 251.287 104.253C249.26 106.567 247.454 109.167 244.898 110.948C243.577 111.84 242.081 112.444 240.509 112.719C238.937 112.994 237.324 112.934 235.777 112.544C231.896 111.672 228.561 109.461 225.375 107.185C221.837 104.658 218.202 101.978 213.811 101.233C213.279 101.143 213.45 100.325 213.982 100.415C221.622 101.71 226.644 108.393 233.696 111.048C236.986 112.287 240.671 112.544 243.781 110.676C246.5 109.042 248.364 106.362 250.396 104.002C252.432 101.511 255.048 99.5539 258.016 98.3032C261.183 97.1192 264.529 96.4816 267.91 96.4175C275.521 96.1522 283.126 97.0822 290.446 99.1737C298.815 101.514 306.72 105.266 313.82 110.266C314.26 110.576 313.695 111.195 313.259 110.887L313.259 110.887Z" fill="white"/>
<path d="M274.34 96.8624C274.67 94.2245 275.93 91.7897 277.893 89.9927C279.857 88.1957 282.397 87.1536 285.06 87.0526C285.599 87.0339 285.653 87.8684 285.113 87.8871C282.634 87.9766 280.268 88.9476 278.443 90.6246C276.617 92.3017 275.453 94.5745 275.16 97.0327C275.096 97.5668 274.276 97.3935 274.34 96.8624H274.34Z" fill="white"/>
<path d="M252.16 102.945C255.466 107.264 260.282 110.182 265.648 111.116C266.18 111.208 266.009 112.026 265.478 111.934C259.895 110.952 254.89 107.906 251.459 103.404C251.133 102.974 251.835 102.518 252.16 102.945V102.945Z" fill="white"/>
<path d="M298.114 102.375C297.773 103.369 297.685 104.432 297.858 105.468C298.03 106.505 298.458 107.482 299.103 108.313C299.435 108.738 298.732 109.194 298.402 108.772C297.694 107.85 297.223 106.77 297.029 105.626C296.836 104.481 296.927 103.306 297.294 102.205C297.32 102.098 297.385 102.005 297.477 101.945C297.569 101.885 297.681 101.862 297.789 101.88C297.898 101.904 297.993 101.968 298.054 102.061C298.114 102.154 298.136 102.266 298.114 102.375V102.375Z" fill="white"/>
<path d="M242.527 71.4063H240.872V26.1773C240.872 22.7397 240.194 19.3357 238.875 16.1597C237.556 12.9837 235.624 10.098 233.187 7.66716C230.751 5.23637 227.858 3.30817 224.674 1.99264C221.491 0.677103 218.079 1.85325e-06 214.633 0H118.583C115.137 -7.41272e-06 111.725 0.67708 108.542 1.99261C105.358 3.30813 102.466 5.23633 100.029 7.66711C97.5926 10.0979 95.6599 12.9837 94.3412 16.1596C93.0226 19.3356 92.3439 22.7396 92.3439 26.1772V274.307C92.3439 281.25 95.1083 287.908 100.029 292.817C104.95 297.726 111.624 300.484 118.583 300.484H214.633C221.592 300.484 228.266 297.726 233.187 292.817C238.108 287.908 240.872 281.25 240.872 274.307V103.601H242.527V71.4063Z" fill="#3F3D56"/>
<path d="M215.692 6.81032H203.154C203.731 8.22057 203.951 9.75063 203.795 11.2657C203.639 12.7808 203.112 14.2345 202.261 15.4986C201.409 16.7627 200.259 17.7984 198.912 18.5147C197.564 19.2309 196.061 19.6055 194.535 19.6057H139.509C137.982 19.6055 136.479 19.2309 135.132 18.5147C133.784 17.7984 132.634 16.7627 131.783 15.4986C130.931 14.2345 130.404 12.7808 130.249 11.2657C130.093 9.75063 130.313 8.22055 130.889 6.8103H119.179C113.982 6.8103 108.998 8.86992 105.323 12.536C101.649 16.2022 99.5841 21.1745 99.584 26.3592V274.125C99.584 276.692 100.091 279.234 101.076 281.606C102.06 283.978 103.504 286.133 105.323 287.948C107.143 289.763 109.303 291.203 111.68 292.186C114.058 293.168 116.606 293.674 119.179 293.674H215.692C218.265 293.674 220.813 293.168 223.19 292.186C225.568 291.203 227.728 289.763 229.548 287.948C231.367 286.133 232.811 283.978 233.795 281.606C234.78 279.234 235.287 276.692 235.287 274.125V26.3592C235.287 21.1745 233.222 16.2022 229.548 12.536C225.873 8.86992 220.889 6.81032 215.692 6.81032Z" fill="white"/>
<path d="M169.29 214.082C162.183 214.089 155.144 212.697 148.577 209.987C142.01 207.276 136.042 203.301 131.017 198.287C125.992 193.273 122.006 187.32 119.29 180.768C116.573 174.217 115.178 167.195 115.185 160.104C115.175 150.148 117.929 140.384 123.142 131.894C128.355 123.404 135.823 116.521 144.719 112.007C151.167 108.734 158.206 106.782 165.422 106.265C172.638 105.749 179.884 106.678 186.735 108.998C198.866 113.123 209.137 121.41 215.717 132.383C222.297 143.356 224.759 156.303 222.665 168.918C220.571 181.533 214.056 192.997 204.282 201.268C194.507 209.539 182.107 214.08 169.29 214.082L169.29 214.082ZM169.29 108.243C161.082 108.219 152.987 110.156 145.683 113.892C139.299 117.137 133.656 121.664 129.108 127.188C124.561 132.713 121.207 139.115 119.258 145.994C117.309 152.873 116.806 160.079 117.781 167.161C118.756 174.243 121.188 181.047 124.925 187.147C128.661 193.247 133.621 198.51 139.494 202.606C145.366 206.702 152.023 209.543 159.049 210.95C166.074 212.357 173.314 212.301 180.317 210.783C187.319 209.266 193.931 206.321 199.737 202.133C202.545 200.112 205.141 197.814 207.487 195.274C214.346 187.869 218.893 178.629 220.57 168.686C222.246 158.743 220.98 148.528 216.927 139.292C212.873 130.056 206.208 122.2 197.747 116.685C189.286 111.17 179.397 108.237 169.29 108.243Z" fill="#F0F0F0"/>
<path d="M52.0518 112.201C53.537 112.387 54.9632 112.895 56.2301 113.69C57.497 114.485 58.5737 115.548 59.3844 116.803C60.1951 118.058 60.7201 119.476 60.9223 120.955C61.1246 122.435 60.9993 123.94 60.5551 125.366L78.5316 140.305L72.0965 153.418L47.0072 131.966C44.6555 131.063 42.7175 129.33 41.5605 127.097C40.4036 124.863 40.108 122.284 40.7298 119.848C41.3516 117.412 42.8477 115.288 44.9344 113.878C47.0211 112.469 49.5536 111.872 52.0519 112.201L52.0518 112.201Z" fill="#FFB6B6"/>
<path d="M219.944 174.498C219.583 170.632 218.093 163.681 216.828 161.111C212.94 150.959 187.82 142.616 184.447 141.54L183.591 132.05L148.688 128.303L144.26 140.439L131.742 145.125C130.892 145.441 130.123 145.941 129.489 146.588C128.856 147.236 128.374 148.016 128.078 148.871L116.847 152.11L105.764 155.306L67.261 128.24L65.4431 129.425L53.2927 137.335L51.4182 138.555L101.245 183.403L119.754 179.071L133.673 175.804L134.86 180.616L131.784 197.522C140.697 206.417 152.495 211.853 165.063 212.855C177.63 213.858 190.144 210.36 200.36 202.99L208.267 195.991C213.778 190.046 217.845 182.917 220.156 175.155L219.944 174.498Z" fill="#E4E4E4"/>
<path d="M177.106 120.542C190.282 116.19 197.426 102.006 193.064 88.8609C188.701 75.7161 174.484 68.5883 161.308 72.9404C148.132 77.2925 140.987 91.4765 145.35 104.621C149.712 117.766 163.93 124.894 177.106 120.542Z" fill="#FFB6B6"/>
<path d="M149.357 68.1593C151.8 64.6785 155.466 62.2421 159.627 61.3342C163.741 60.49 168.023 61.2736 171.569 63.5195C175.425 61.9699 179.583 60.9418 183.667 61.4645C187.752 61.9871 191.755 64.2633 193.645 68.0133C194.043 68.9847 194.525 69.9193 195.087 70.8065C196.752 73.0228 199.847 73.3103 202.58 73.4168C201.198 74.2208 199.816 75.0247 198.434 75.8286C199.811 76.4688 201.188 77.1091 202.566 77.7494C200.691 78.4633 198.817 79.1771 196.943 79.8911C201.305 83.717 202.361 90.5259 200.708 96.2345C199.145 101.639 195.559 106.189 191.555 110.084C190.774 107.178 191.633 104.027 192.205 101.018C192.809 97.8382 192.906 94.1204 190.675 91.8757C189.17 90.3615 186.961 89.904 184.879 89.5367C174.377 87.6837 163.778 86.4281 153.133 85.7761C151.708 85.5797 150.257 85.7275 148.902 86.2071C146.311 87.3555 145.27 90.5095 144.52 93.306C144.16 88.3973 144.447 83.4628 145.374 78.6286C146.084 74.9287 147.203 71.2255 149.357 68.1593Z" fill="#2F2E41"/>
<path d="M182.021 239.513H152.316C151.284 239.513 150.295 239.105 149.565 238.377C148.836 237.649 148.426 236.662 148.426 235.633C148.426 234.603 148.836 233.616 149.565 232.889C150.295 232.161 151.284 231.752 152.316 231.752H182.021C183.052 231.752 184.042 232.161 184.771 232.889C185.501 233.616 185.911 234.603 185.911 235.633C185.911 236.662 185.501 237.649 184.771 238.377C184.042 239.105 183.052 239.513 182.021 239.513Z" fill="#7721FF"/>
<path d="M84.5474 31.8399H2.84162C2.0887 31.8387 1.36701 31.5395 0.835033 31.0079C0.303059 30.4764 0.00427246 29.7559 0.00427246 29.0048C0.00427246 28.2536 0.303059 27.5332 0.835033 27.0016C1.36701 26.4701 2.0887 26.1709 2.84162 26.1697H84.5474C85.3011 26.1697 86.0239 26.4684 86.5568 27.0001C87.0898 27.5318 87.3892 28.2529 87.3892 29.0048C87.3892 29.7567 87.0898 30.4778 86.5568 31.0095C86.0239 31.5412 85.3011 31.8399 84.5474 31.8399Z" fill="#7721FF"/>
<path d="M131.722 49.9477H2.84164C2.08799 49.9477 1.3652 49.649 0.832294 49.1174C0.299383 48.5857 0 47.8647 0 47.1128C0 46.3609 0.299383 45.6398 0.832294 45.1082C1.3652 44.5765 2.08799 44.2778 2.84164 44.2778H131.722C132.475 44.2778 133.198 44.5765 133.731 45.1082C134.264 45.6398 134.563 46.3609 134.563 47.1128C134.563 47.8647 134.264 48.5857 133.731 49.1174C133.198 49.649 132.475 49.9477 131.722 49.9477Z" fill="#7721FF"/>
<path d="M106.955 67.0068H2.84164C2.08799 67.0068 1.3652 66.7081 0.832293 66.1765C0.299383 65.6448 0 64.9237 0 64.1719C0 63.42 0.299383 62.6989 0.832293 62.1672C1.3652 61.6356 2.08799 61.3369 2.84164 61.3369H106.955C107.709 61.3369 108.431 61.6356 108.964 62.1672C109.497 62.6989 109.797 63.42 109.797 64.1719C109.797 64.9237 109.497 65.6448 108.964 66.1765C108.431 66.7081 107.709 67.0068 106.955 67.0068Z" fill="#CACACA"/>
<path d="M306.5 134C306.5 134 304.193 144.506 307.882 147C309.571 148.142 316 147.5 316 147.5" stroke="#2F2E41"/>
<path d="M61.5504 84.0034H2.84164C2.08799 84.0034 1.3652 83.7047 0.832293 83.1731C0.299383 82.6414 0 81.9203 0 81.1684C0 80.4166 0.299383 79.6955 0.832293 79.1638C1.3652 78.6322 2.08799 78.3335 2.84164 78.3335H61.5504C62.3041 78.3335 63.0269 78.6322 63.5598 79.1638C64.0927 79.6955 64.3921 80.4166 64.3921 81.1684C64.3921 81.9203 64.0927 82.6414 63.5598 83.1731C63.0269 83.7047 62.3041 84.0034 61.5504 84.0034Z" fill="#CACACA"/>
<path d="M93.9825 100.999H2.8416C2.08873 100.998 1.36712 100.698 0.835173 100.167C0.303231 99.6353 0.00445557 98.9149 0.00445557 98.1638C0.00445557 97.4127 0.303231 96.6923 0.835173 96.1608C1.36712 95.6292 2.08873 95.33 2.8416 95.3289H93.9825C94.7353 95.33 95.457 95.6292 95.9889 96.1608C96.5208 96.6923 96.8196 97.4127 96.8196 98.1638C96.8196 98.9149 96.5208 99.6353 95.9889 100.167C95.457 100.698 94.7353 100.998 93.9825 100.999Z" fill="#CACACA"/>
<path d="M350.843 378.357L343.52 378.357L340.036 350.177L350.844 350.177L350.843 378.357Z" fill="#9F616A"/>
<path d="M306 138H315V148C315 148 309.212 148.783 307 146.5C304.674 144.1 306 138 306 138Z" fill="#2F2E41"/>
<path d="M353.724 388.468L325.765 388.467V388.114C325.765 385.235 326.912 382.473 328.953 380.438C330.994 378.402 333.761 377.258 336.647 377.258H336.648L341.755 373.392L351.284 377.258L353.724 377.258L353.724 388.468Z" fill="#2F2E41"/>
<path d="M346.576 245.917L343.346 206.631L340.809 191.885L355.014 188.755L359.729 208.943L355.621 247.008C356.45 248.021 356.956 249.257 357.074 250.559C357.193 251.861 356.919 253.168 356.287 254.314C355.655 255.459 354.694 256.389 353.528 256.985C352.362 257.582 351.044 257.817 349.743 257.66C348.442 257.503 347.218 256.962 346.228 256.106C345.237 255.249 344.526 254.118 344.186 252.855C343.845 251.593 343.891 250.258 344.317 249.022C344.743 247.785 345.529 246.704 346.576 245.917H346.576Z" fill="#9F616A"/>
<path d="M311.943 378.357L304.62 378.357L301.136 350.177L311.945 350.177L311.943 378.357Z" fill="#9F616A"/>
<path d="M300.224 254.824L296.977 260.426C296.977 260.426 293.41 261.398 294.576 272.999C295.742 284.599 295.792 353.33 301.435 361.788L302.456 369.05L313.112 370.066L313.381 363.622L326.087 274.093C326.087 274.093 333.57 361.982 339.761 364.133L341.997 371.455L351.763 371.459L351.186 362.83L351.816 253.916L300.224 254.824Z" fill="#2F2E41"/>
<path d="M296.655 259.999L296.43 259.941C303.131 234.938 301.198 202.56 296.467 167.793L296.467 167.649L313.571 152.02H328.423L343.147 161.5C352.666 166.247 354.829 176.302 354.85 176.404L354.864 176.475L349.032 196.785L353.426 255.521L353.431 255.589L353.406 255.652C351.984 259.249 348.173 258.737 343.761 258.143C339.357 257.551 323.126 262.968 318.149 262.968C308.424 262.968 297.35 260.177 296.655 259.999Z" fill="#E4E4E4"/>
<path d="M340.063 169.416L346.444 166.646L354.85 176.929L361.664 209.878L338.325 206.35L340.063 169.416Z" fill="#E4E4E4"/>
<path d="M241.925 230.175L271.093 203.584L281.23 192.558L292.405 201.852L279.285 217.925L246.596 237.979C246.3 239.253 245.629 240.409 244.67 241.299C243.71 242.189 242.506 242.773 241.211 242.975C239.917 243.177 238.591 242.989 237.405 242.433C236.219 241.878 235.226 240.982 234.554 239.86C233.882 238.737 233.562 237.44 233.635 236.135C233.708 234.83 234.17 233.576 234.962 232.535C235.755 231.494 236.841 230.713 238.082 230.292C239.322 229.872 240.661 229.831 241.925 230.175L241.925 230.175Z" fill="#9F616A"/>
<path d="M270.458 203.874L278.536 193.407C278.603 193.257 285.306 178.315 291.115 171.822C297.075 165.162 301.767 168.568 301.814 168.605L301.93 168.693L302.255 193.287L279.886 219.953L270.458 203.874Z" fill="#E4E4E4"/>
<path d="M332.963 137.299C334.168 129.894 329.127 122.917 321.705 121.715C314.282 120.513 307.289 125.542 306.084 132.947C304.88 140.352 309.92 147.329 317.343 148.531C324.765 149.732 331.759 144.703 332.963 137.299Z" fill="#9F616A"/>
<path d="M307.076 133.106C307.076 133.106 306.967 128.331 306.362 126.218C305.757 124.105 304.547 122.294 305.152 122.294C305.757 122.294 306.06 120.785 306.06 120.785C306.06 120.785 306.665 120.483 306.967 120.785C307.27 121.087 307.572 118.672 307.572 118.672C307.572 118.672 307.875 117.766 308.178 118.37C308.48 118.974 308.48 118.672 308.783 117.766C309.085 116.861 310.598 116.257 310.598 116.257C310.598 116.257 316.347 116.559 317.255 115.351C318.162 114.144 328.449 115.05 330.567 116.559C332.685 118.068 342.065 123.501 340.552 128.029C339.039 132.557 334.684 142.982 333.593 144.027C331.867 145.68 330.672 146.276 322.507 147.897C320.909 148.214 312.752 143.01 312.752 142.104C312.752 141.199 313.736 138.327 312.155 137.933C309.766 137.337 309.497 140.351 308.892 139.445C308.287 138.539 307.076 133.106 307.076 133.106Z" fill="#2F2E41"/>
<path d="M314.825 388.468L286.866 388.467V388.114C286.866 385.235 288.013 382.473 290.054 380.438C292.094 378.402 294.862 377.258 297.748 377.258H297.749L302.856 373.392L312.385 377.258L314.825 377.258L314.825 388.468Z" fill="#2F2E41"/>
<path d="M460.158 389H2.35377C2.13043 389 1.91625 388.912 1.75832 388.754C1.60039 388.596 1.51166 388.383 1.51166 388.16C1.51166 387.937 1.60039 387.723 1.75832 387.566C1.91625 387.408 2.13043 387.32 2.35377 387.32H460.158C460.381 387.32 460.595 387.408 460.753 387.566C460.911 387.723 461 387.937 461 388.16C461 388.383 460.911 388.596 460.753 388.754C460.595 388.912 460.381 389 460.158 389Z" fill="#CACACA"/>
<path d="M303.5 153H345.312L351.357 210.958L352.921 245L354.38 268.916L359.921 375H292.921V263L303.5 153Z" fill="#E4E4E4"/>
<path d="M161.5 122C139.5 117 144.5 93 144.5 93C144.5 93 152.211 111.899 163 115C174.953 118.436 192.5 103 192.5 103L191.5 110C191.5 110 183.5 127 161.5 122Z" fill="#2F2E41"/>
<path d="M155 139C130 134 144.5 92 144.5 92L148 102.5L154 111L161.5 117H178L195 106.5C195 106.5 180 144 155 139Z" fill="#2F2E41"/>
</g>
<defs>
<clipPath id="clip0_368_3032">
<rect width="461" height="389" fill="white"/>
</clipPath>
</defs>
</svg>
