<svg width="478" height="333" viewBox="0 0 478 333" fill="none" xmlns="http://www.w3.org/2000/svg">
<circle cx="114.304" cy="218.218" r="114.304" fill="#1B1B27"/>
<circle cx="363.696" cy="218.218" r="114.304" fill="#1B1B27"/>
<circle cx="238.999" cy="124.696" r="124.696" fill="#1B1B27"/>
<rect x="114.304" y="207.826" width="249.391" height="124.696" fill="#1B1B27"/>
<rect x="205.737" y="155.576" width="66.2967" height="66.2967" fill="white"/>
<rect x="205.32" y="155.157" width="67.1363" height="67.1363" stroke="white" stroke-width="8"/>
<rect x="206.401" y="226.292" width="2.65187" height="3.53583" fill="white"/>
<rect x="211.707" y="226.292" width="2.65187" height="3.53583" fill="white"/>
<rect x="217.008" y="226.292" width="2.65187" height="3.53583" fill="white"/>
<rect x="222.313" y="226.292" width="2.65187" height="3.53583" fill="white"/>
<rect x="227.618" y="226.292" width="2.65187" height="3.53583" fill="white"/>
<rect x="232.921" y="226.292" width="2.65187" height="3.53583" fill="white"/>
<rect x="238.224" y="226.292" width="2.65187" height="3.53583" fill="white"/>
<rect x="243.529" y="226.292" width="2.65187" height="3.53583" fill="white"/>
<rect x="248.831" y="226.292" width="2.65187" height="3.53583" fill="white"/>
<rect x="254.136" y="226.292" width="2.65187" height="3.53583" fill="white"/>
<rect x="259.439" y="226.292" width="2.65187" height="3.53583" fill="white"/>
<rect x="264.744" y="226.292" width="2.65187" height="3.53583" fill="white"/>
<rect x="270.047" y="226.292" width="2.65187" height="3.53583" fill="white"/>
<rect x="197.562" y="218.116" width="3.75682" height="2.65187" fill="white"/>
<rect x="276.456" y="219.222" width="3.75682" height="2.65187" fill="white"/>
<rect x="197.562" y="212.813" width="3.75682" height="2.65187" fill="white"/>
<rect x="276.456" y="213.919" width="3.75682" height="2.65187" fill="white"/>
<rect x="197.562" y="207.509" width="3.75682" height="2.65187" fill="white"/>
<rect x="276.456" y="208.614" width="3.75682" height="2.65187" fill="white"/>
<rect x="197.562" y="202.206" width="3.75682" height="2.65187" fill="white"/>
<rect x="276.456" y="203.311" width="3.75682" height="2.65187" fill="white"/>
<rect x="197.562" y="196.901" width="3.75682" height="2.65187" fill="white"/>
<rect x="276.456" y="198.006" width="3.75682" height="2.65187" fill="white"/>
<rect x="197.562" y="191.597" width="3.75682" height="2.65187" fill="white"/>
<rect x="276.456" y="192.702" width="3.75682" height="2.65187" fill="white"/>
<rect x="197.562" y="186.293" width="3.75682" height="2.65187" fill="white"/>
<rect x="276.456" y="187.399" width="3.75682" height="2.65187" fill="white"/>
<rect x="197.562" y="180.991" width="3.75682" height="2.65187" fill="white"/>
<rect x="276.456" y="182.094" width="3.75682" height="2.65187" fill="white"/>
<rect x="197.562" y="175.686" width="3.75682" height="2.65187" fill="white"/>
<rect x="276.456" y="176.791" width="3.75682" height="2.65187" fill="white"/>
<rect x="197.562" y="170.384" width="3.75682" height="2.65187" fill="white"/>
<rect x="276.456" y="171.489" width="3.75682" height="2.65187" fill="white"/>
<rect x="197.562" y="165.079" width="3.75682" height="2.65187" fill="white"/>
<rect x="276.456" y="166.184" width="3.75682" height="2.65187" fill="white"/>
<rect x="197.562" y="159.776" width="3.75682" height="2.65187" fill="white"/>
<rect x="276.456" y="160.881" width="3.75682" height="2.65187" fill="white"/>
<rect x="197.562" y="154.472" width="3.75682" height="2.65187" fill="white"/>
<rect x="276.456" y="155.576" width="3.75682" height="2.65187" fill="white"/>
<rect x="206.401" y="146.958" width="2.65187" height="4.19879" fill="white"/>
<rect x="206.401" y="146.958" width="2.65187" height="4.19879" fill="white"/>
<rect x="211.707" y="146.958" width="2.65187" height="4.19879" fill="white"/>
<rect x="211.707" y="146.958" width="2.65187" height="4.19879" fill="white"/>
<rect x="217.008" y="146.958" width="2.65187" height="4.19879" fill="white"/>
<rect x="217.008" y="146.958" width="2.65187" height="4.19879" fill="white"/>
<rect x="222.313" y="146.958" width="2.65187" height="4.19879" fill="white"/>
<rect x="222.313" y="146.958" width="2.65187" height="4.19879" fill="white"/>
<rect x="227.618" y="146.958" width="2.65187" height="4.19879" fill="white"/>
<rect x="227.618" y="146.958" width="2.65187" height="4.19879" fill="white"/>
<rect x="232.921" y="146.958" width="2.65187" height="4.19879" fill="white"/>
<rect x="232.921" y="146.958" width="2.65187" height="4.19879" fill="white"/>
<rect x="238.224" y="146.958" width="2.65187" height="4.19879" fill="white"/>
<rect x="238.224" y="146.958" width="2.65187" height="4.19879" fill="white"/>
<rect x="243.529" y="146.958" width="2.65187" height="4.19879" fill="white"/>
<rect x="243.529" y="146.958" width="2.65187" height="4.19879" fill="white"/>
<rect x="248.831" y="146.958" width="2.65187" height="4.19879" fill="white"/>
<rect x="248.831" y="146.958" width="2.65187" height="4.19879" fill="white"/>
<rect x="254.136" y="146.958" width="2.65187" height="4.19879" fill="white"/>
<rect x="254.136" y="146.958" width="2.65187" height="4.19879" fill="white"/>
<rect x="259.439" y="146.958" width="2.65187" height="4.19879" fill="white"/>
<rect x="259.439" y="146.958" width="2.65187" height="4.19879" fill="white"/>
<rect x="264.744" y="146.958" width="2.65187" height="4.19879" fill="white"/>
<rect x="264.744" y="146.958" width="2.65187" height="4.19879" fill="white"/>
<rect x="270.047" y="146.958" width="2.65187" height="4.19879" fill="white"/>
<rect x="270.047" y="146.958" width="2.65187" height="4.19879" fill="white"/>
<path d="M207.175 248.171V229.829H208.28V248.613L199.662 257.011V266.845L198.557 266.831V256.348L207.175 248.171Z" fill="white" stroke="white"/>
<path d="M265.518 265.408V229.829H266.623V264.966L269.827 268.06L269.274 268.944L265.518 265.408Z" fill="white"/>
<path d="M260.104 242.404V229.829H261.208V241.652L263.197 243.641V260.215H261.871V244.193L260.104 242.404Z" fill="white"/>
<path d="M244.303 255.906V229.829H245.408V256.348L243.64 258.116V285.739H242.314V257.674L244.303 255.906Z" fill="white"/>
<path d="M212.372 257.784V229.829H213.698V258.226L209.278 262.867L209.057 263.063V277.894H207.731V262.425L212.372 257.784Z" fill="white"/>
<path d="M217.783 255.574L217.673 229.94V229.829H218.999V255.132L221.319 257.342V268.392H219.993L219.883 257.784L217.783 255.574Z" fill="white"/>
<rect x="222.979" y="229.829" width="1.32593" height="13.4803" fill="white"/>
<path d="M228.17 265.85V229.829H229.496V266.624L227.507 268.613V286.181H226.181V267.95L228.17 265.85Z" fill="white"/>
<rect x="233.585" y="229.829" width="1.32593" height="30.4965" fill="white"/>
<path d="M238.78 272.259L239.001 229.829H240.106V272.591L234.581 278.005V295.021H233.255V277.563L238.78 272.259Z" fill="white"/>
<path d="M249.495 255.685L249.716 229.829H250.821V255.906L246.623 260.105V268.346H245.518V259.663L249.495 255.685Z" fill="white"/>
<path d="M254.689 278.226L254.91 229.829H256.015V278.226H254.689Z" fill="white"/>
<path d="M270.602 239.553V229.609H271.927V238.669L281.43 247.73V253.697H279.883V248.393L270.602 239.553Z" fill="white"/>
<path d="M298.556 221.1H280.214V219.995H298.998L307.396 228.613H317.23L317.216 229.718H306.733L298.556 221.1Z" fill="white" stroke="white"/>
<path d="M315.793 162.759H280.214V161.654H315.351L318.445 158.45L319.329 159.002L315.793 162.759Z" fill="white"/>
<path d="M292.789 168.174H280.214V167.069H292.037L294.026 165.08H310.6V166.406H294.578L292.789 168.174Z" fill="white"/>
<path d="M306.291 183.973H280.214V182.869H306.733L308.5 184.636H336.124V185.962H308.058L306.291 183.973Z" fill="white"/>
<path d="M308.169 215.906H280.214V214.58H308.611L313.252 219L313.448 219.221H328.279V220.547H312.81L308.169 215.906Z" fill="white"/>
<path d="M305.959 210.493L280.324 210.604H280.214V209.278H305.517L307.727 206.957H318.776V208.283L308.169 208.394L305.959 210.493Z" fill="white"/>
<rect x="280.214" y="205.3" width="1.32593" height="13.4803" transform="rotate(-90 280.214 205.3)" fill="white"/>
<path d="M316.235 200.107H280.214V198.781H317.009L318.997 200.77H336.566V202.096H318.334L316.235 200.107Z" fill="white"/>
<rect x="280.214" y="194.692" width="1.32593" height="30.4965" transform="rotate(-90 280.214 194.692)" fill="white"/>
<path d="M322.644 189.5L280.214 189.279V188.174H322.975L328.39 193.698H345.406V195.024H327.948L322.644 189.5Z" fill="white"/>
<path d="M306.07 178.781L280.214 178.56V177.456H306.291L310.489 181.654H318.731V182.759H310.047L306.07 178.781Z" fill="white"/>
<path d="M328.61 173.588L280.214 173.367V172.262H328.61V173.588Z" fill="white"/>
<path d="M289.94 157.676H279.995V156.35H289.056L298.116 146.848H304.083V148.395H298.779L289.94 157.676Z" fill="white"/>
<path d="M271.933 128.836V147.178H270.828V128.394L279.447 119.997V110.163L280.552 110.177V120.66L271.933 128.836Z" fill="white" stroke="white"/>
<path d="M213.591 111.599V147.178H212.486V112.041L209.282 108.947L209.834 108.063L213.591 111.599Z" fill="white"/>
<path d="M219.006 134.603V147.178H217.901V135.355L215.912 133.366V116.792H217.238V132.814L219.006 134.603Z" fill="white"/>
<path d="M234.807 121.102V147.178H233.702V120.66L235.47 118.892V91.268H236.796V119.334L234.807 121.102Z" fill="white"/>
<path d="M266.736 119.223V147.178H265.41V118.781L269.83 114.14L270.051 113.944V99.1131H271.377V114.582L266.736 119.223Z" fill="white"/>
<path d="M261.325 121.433L261.436 147.068V147.178H260.11V121.875L257.789 119.665V108.616H259.115L259.226 119.223L261.325 121.433Z" fill="white"/>
<rect x="256.131" y="147.178" width="1.32593" height="13.4803" transform="rotate(180 256.131 147.178)" fill="white"/>
<path d="M250.938 111.157V147.178H249.612V110.384L251.601 108.395V90.826H252.927V109.058L250.938 111.157Z" fill="white"/>
<rect x="245.523" y="147.178" width="1.32593" height="30.4965" transform="rotate(180 245.523 147.178)" fill="white"/>
<path d="M240.329 104.748L240.108 147.178H239.003V104.417L244.528 99.0026V81.9864H245.854V99.4446L240.329 104.748Z" fill="white"/>
<path d="M229.613 121.322L229.392 147.178H228.287V121.102L232.486 116.903V108.661H233.591V117.345L229.613 121.322Z" fill="white"/>
<path d="M224.418 98.7816L224.197 147.178H223.092V98.7816H224.418Z" fill="white"/>
<path d="M208.506 137.454V147.399H207.18V138.338L197.677 129.278V123.311H199.224V128.615L208.506 137.454Z" fill="white"/>
<path d="M179.23 155.465H197.572V156.57H178.788L170.391 147.952H160.557L160.571 146.847H171.054L179.23 155.465Z" fill="white" stroke="white"/>
<path d="M161.993 213.807H197.572V214.912H162.435L159.341 218.116L158.457 217.564L161.993 213.807Z" fill="white"/>
<path d="M184.997 208.393H197.572V209.498H185.749L183.76 211.487H167.186V210.161H183.208L184.997 208.393Z" fill="white"/>
<path d="M171.496 192.592H197.572V193.697H171.054L169.286 191.929L141.662 191.929V190.604L169.728 190.604L171.496 192.592Z" fill="white"/>
<path d="M169.617 160.658H197.572V161.984H169.175L164.534 157.565L164.338 157.344H149.507V156.018H164.976L169.617 160.658Z" fill="white"/>
<path d="M171.827 166.073L197.462 165.962H197.572V167.288H172.269L170.059 169.609H159.01V168.283L169.617 168.172L171.827 166.073Z" fill="white"/>
<rect x="197.572" y="171.265" width="1.32593" height="13.4803" transform="rotate(90 197.572 171.265)" fill="white"/>
<path d="M161.551 176.459H197.572V177.785H160.778L158.789 175.796L141.22 175.796V174.47L159.452 174.47L161.551 176.459Z" fill="white"/>
<rect x="197.572" y="181.873" width="1.32593" height="30.4965" transform="rotate(90 197.572 181.873)" fill="white"/>
<path d="M155.142 187.067L197.572 187.288V188.393H154.811L149.397 182.868L132.38 182.868V181.542L149.839 181.542L155.142 187.067Z" fill="white"/>
<path d="M171.717 197.785L197.572 198.006V199.111H171.496L167.297 194.912H159.055V193.807H167.739L171.717 197.785Z" fill="white"/>
<path d="M149.176 202.978L197.572 203.199V204.303H149.176V202.978Z" fill="white"/>
<path d="M187.847 218.89H197.792V220.216H188.731L179.671 229.719H173.704V228.172H179.008L187.847 218.89Z" fill="white"/>
</svg>
